ISO-10303-21;
HEADER;
/* Generated by software containing ST-Developer
 * from STEP Tools, Inc. (www.steptools.com) 
 */
/* OPTION: using custom renumber hook */

FILE_DESCRIPTION(
/* description */ ('STEP AP242 Edition 2',
'CAx-IF Rec.Pracs.---Representation and Presentation of Product Manufa
cturing Information (PMI)---4.0---2014-10-13',
'CAx-IF Rec.Pracs.---3D Tessellated Geometry---0.4---2014-09-14','2;1',
'CAx-IF Rec.Pracs.---User Defined Attributes---1.5---2016-08-15'),
/* implementation_level */ '2;1');

FILE_NAME(
/* name */ 'Part Studio 1',
/* time_stamp */ '2026-08-26T15:07:25Z',
/* author */ (''),
/* organization */ (''),
/* preprocessor_version */ 'ST-DEVELOPER v20',
/* originating_system */ 'ONSHAPE BY PTC INC, 1.219',
/* authorisation */ '  ');

FILE_SCHEMA (('AP242_MANAGED_MODEL_BASED_3D_ENGINEERING_MIM_LF { 1 0 10303 442 3 1 4 }'));
ENDSEC;

DATA;
#10=SHAPE_REPRESENTATION_RELATIONSHIP('','',#1098,#17);
#11=SHAPE_REPRESENTATION_RELATIONSHIP('','',#1099,#18);
#12=SHAPE_REPRESENTATION_RELATIONSHIP('','',#1100,#19);
#13=SHAPE_REPRESENTATION_RELATIONSHIP('','',#1101,#20);
#14=SHAPE_REPRESENTATION_RELATIONSHIP('','',#1102,#21);
#15=SHAPE_REPRESENTATION_RELATIONSHIP('','',#1103,#22);
#16=SHAPE_REPRESENTATION_RELATIONSHIP('','',#1104,#23);
#17=ADVANCED_BREP_SHAPE_REPRESENTATION('',(#1084),#1914);
#18=ADVANCED_BREP_SHAPE_REPRESENTATION('',(#1085),#1915);
#19=ADVANCED_BREP_SHAPE_REPRESENTATION('',(#1086),#1916);
#20=ADVANCED_BREP_SHAPE_REPRESENTATION('',(#1087),#1917);
#21=ADVANCED_BREP_SHAPE_REPRESENTATION('',(#1088),#1918);
#22=ADVANCED_BREP_SHAPE_REPRESENTATION('',(#1089),#1919);
#23=ADVANCED_BREP_SHAPE_REPRESENTATION('',(#1090),#1920);
#24=CYLINDRICAL_SURFACE('',#1116,0.005);
#25=CYLINDRICAL_SURFACE('',#1119,0.005);
#26=CYLINDRICAL_SURFACE('',#1123,0.0025);
#27=CYLINDRICAL_SURFACE('',#1128,0.0025);
#28=CYLINDRICAL_SURFACE('',#1136,1.5);
#29=CYLINDRICAL_SURFACE('',#1137,1.5);
#30=CYLINDRICAL_SURFACE('',#1143,0.005);
#31=CYLINDRICAL_SURFACE('',#1148,0.005);
#32=CYLINDRICAL_SURFACE('',#1154,0.005);
#33=CYLINDRICAL_SURFACE('',#1159,0.005);
#34=CYLINDRICAL_SURFACE('',#1181,1.5);
#35=CYLINDRICAL_SURFACE('',#1182,1.5);
#36=CYLINDRICAL_SURFACE('',#1195,0.005);
#37=CYLINDRICAL_SURFACE('',#1198,0.005);
#38=CYLINDRICAL_SURFACE('',#1201,0.0025);
#39=CYLINDRICAL_SURFACE('',#1203,0.0025);
#40=CYLINDRICAL_SURFACE('',#1215,0.005);
#41=CYLINDRICAL_SURFACE('',#1218,0.005);
#42=CYLINDRICAL_SURFACE('',#1232,0.005);
#43=CYLINDRICAL_SURFACE('',#1235,0.005);
#44=PLANE('',#1109);
#45=PLANE('',#1110);
#46=PLANE('',#1114);
#47=PLANE('',#1115);
#48=PLANE('',#1118);
#49=PLANE('',#1121);
#50=PLANE('',#1126);
#51=PLANE('',#1130);
#52=PLANE('',#1132);
#53=PLANE('',#1134);
#54=PLANE('',#1140);
#55=PLANE('',#1141);
#56=PLANE('',#1146);
#57=PLANE('',#1147);
#58=PLANE('',#1151);
#59=PLANE('',#1152);
#60=PLANE('',#1157);
#61=PLANE('',#1158);
#62=PLANE('',#1162);
#63=PLANE('',#1163);
#64=PLANE('',#1165);
#65=PLANE('',#1166);
#66=PLANE('',#1167);
#67=PLANE('',#1168);
#68=PLANE('',#1169);
#69=PLANE('',#1170);
#70=PLANE('',#1173);
#71=PLANE('',#1177);
#72=PLANE('',#1183);
#73=PLANE('',#1186);
#74=PLANE('',#1191);
#75=PLANE('',#1194);
#76=PLANE('',#1197);
#77=PLANE('',#1200);
#78=PLANE('',#1205);
#79=PLANE('',#1207);
#80=PLANE('',#1211);
#81=PLANE('',#1212);
#82=PLANE('',#1217);
#83=PLANE('',#1220);
#84=PLANE('',#1225);
#85=PLANE('',#1226);
#86=PLANE('',#1227);
#87=PLANE('',#1229);
#88=PLANE('',#1234);
#89=PLANE('',#1237);
#90=CIRCLE('',#1107,0.3);
#91=CIRCLE('',#1108,0.15);
#92=CIRCLE('',#1112,0.15);
#93=CIRCLE('',#1113,0.3);
#94=CIRCLE('',#1117,0.005);
#95=CIRCLE('',#1120,0.005);
#96=CIRCLE('',#1124,0.0025);
#97=CIRCLE('',#1125,0.0025);
#98=CIRCLE('',#1127,0.0025);
#99=CIRCLE('',#1129,0.0025);
#100=CIRCLE('',#1133,1.5);
#101=CIRCLE('',#1135,1.5);
#102=CIRCLE('',#1138,1.5);
#103=CIRCLE('',#1139,1.5);
#104=CIRCLE('',#1144,0.005);
#105=CIRCLE('',#1145,0.005);
#106=CIRCLE('',#1149,0.005);
#107=CIRCLE('',#1150,0.005);
#108=CIRCLE('',#1155,0.005);
#109=CIRCLE('',#1156,0.005);
#110=CIRCLE('',#1160,0.005);
#111=CIRCLE('',#1161,0.005);
#112=CIRCLE('',#1171,1.5);
#113=CIRCLE('',#1172,1.5);
#114=CIRCLE('',#1174,0.3);
#115=CIRCLE('',#1175,1.5);
#116=CIRCLE('',#1176,0.3);
#117=CIRCLE('',#1178,0.3);
#118=CIRCLE('',#1179,0.3);
#119=CIRCLE('',#1180,1.5);
#120=CIRCLE('',#1184,0.0025);
#121=CIRCLE('',#1185,0.005);
#122=CIRCLE('',#1187,0.0025);
#123=CIRCLE('',#1188,0.005);
#124=CIRCLE('',#1190,0.15);
#125=CIRCLE('',#1193,0.15);
#126=CIRCLE('',#1196,0.005);
#127=CIRCLE('',#1199,0.005);
#128=CIRCLE('',#1202,0.0025);
#129=CIRCLE('',#1204,0.0025);
#130=CIRCLE('',#1206,0.005);
#131=CIRCLE('',#1208,0.005);
#132=CIRCLE('',#1210,0.15);
#133=CIRCLE('',#1213,0.15);
#134=CIRCLE('',#1216,0.005);
#135=CIRCLE('',#1219,0.005);
#136=CIRCLE('',#1223,0.15);
#137=CIRCLE('',#1224,0.3);
#138=CIRCLE('',#1228,0.3);
#139=CIRCLE('',#1230,0.15);
#140=CIRCLE('',#1233,0.005);
#141=CIRCLE('',#1236,0.005);
#142=LINE('',#1590,#219);
#143=LINE('',#1594,#220);
#144=LINE('',#1598,#221);
#145=LINE('',#1600,#222);
#146=LINE('',#1602,#223);
#147=LINE('',#1604,#224);
#148=LINE('',#1615,#225);
#149=LINE('',#1617,#226);
#150=LINE('',#1622,#227);
#151=LINE('',#1624,#228);
#152=LINE('',#1630,#229);
#153=LINE('',#1635,#230);
#154=LINE('',#1645,#231);
#155=LINE('',#1653,#232);
#156=LINE('',#1655,#233);
#157=LINE('',#1656,#234);
#158=LINE('',#1667,#235);
#159=LINE('',#1671,#236);
#160=LINE('',#1673,#237);
#161=LINE('',#1675,#238);
#162=LINE('',#1686,#239);
#163=LINE('',#1690,#240);
#164=LINE('',#1692,#241);
#165=LINE('',#1694,#242);
#166=LINE('',#1702,#243);
#167=LINE('',#1705,#244);
#168=LINE('',#1707,#245);
#169=LINE('',#1709,#246);
#170=LINE('',#1711,#247);
#171=LINE('',#1713,#248);
#172=LINE('',#1715,#249);
#173=LINE('',#1717,#250);
#174=LINE('',#1719,#251);
#175=LINE('',#1721,#252);
#176=LINE('',#1723,#253);
#177=LINE('',#1724,#254);
#178=LINE('',#1735,#255);
#179=LINE('',#1739,#256);
#180=LINE('',#1743,#257);
#181=LINE('',#1749,#258);
#182=LINE('',#1750,#259);
#183=LINE('',#1756,#260);
#184=LINE('',#1760,#261);
#185=LINE('',#1774,#262);
#186=LINE('',#1775,#263);
#187=LINE('',#1777,#264);
#188=LINE('',#1779,#265);
#189=LINE('',#1781,#266);
#190=LINE('',#1791,#267);
#191=LINE('',#1793,#268);
#192=LINE('',#1795,#269);
#193=LINE('',#1796,#270);
#194=LINE('',#1800,#271);
#195=LINE('',#1805,#272);
#196=LINE('',#1807,#273);
#197=LINE('',#1813,#274);
#198=LINE('',#1817,#275);
#199=LINE('',#1828,#276);
#200=LINE('',#1829,#277);
#201=LINE('',#1833,#278);
#202=LINE('',#1835,#279);
#203=LINE('',#1837,#280);
#204=LINE('',#1839,#281);
#205=LINE('',#1842,#282);
#206=LINE('',#1853,#283);
#207=LINE('',#1854,#284);
#208=LINE('',#1856,#285);
#209=LINE('',#1871,#286);
#210=LINE('',#1875,#287);
#211=LINE('',#1877,#288);
#212=LINE('',#1879,#289);
#213=LINE('',#1881,#290);
#214=LINE('',#1883,#291);
#215=LINE('',#1887,#292);
#216=LINE('',#1891,#293);
#217=LINE('',#1899,#294);
#218=LINE('',#1903,#295);
#219=VECTOR('',#1242,1.);
#220=VECTOR('',#1245,1.);
#221=VECTOR('',#1250,1.);
#222=VECTOR('',#1251,1.);
#223=VECTOR('',#1252,1.);
#224=VECTOR('',#1255,1.);
#225=VECTOR('',#1264,1.);
#226=VECTOR('',#1265,1.);
#227=VECTOR('',#1272,1.);
#228=VECTOR('',#1275,1.);
#229=VECTOR('',#1286,1.);
#230=VECTOR('',#1289,1.);
#231=VECTOR('',#1306,1.);
#232=VECTOR('',#1313,1.);
#233=VECTOR('',#1316,1.);
#234=VECTOR('',#1317,1.);
#235=VECTOR('',#1334,1.);
#236=VECTOR('',#1337,1.);
#237=VECTOR('',#1340,1.);
#238=VECTOR('',#1343,1.);
#239=VECTOR('',#1360,1.);
#240=VECTOR('',#1363,1.);
#241=VECTOR('',#1366,1.);
#242=VECTOR('',#1369,1.);
#243=VECTOR('',#1384,1.);
#244=VECTOR('',#1385,1.);
#245=VECTOR('',#1386,1.);
#246=VECTOR('',#1387,1.);
#247=VECTOR('',#1390,1.);
#248=VECTOR('',#1391,1.);
#249=VECTOR('',#1392,1.);
#250=VECTOR('',#1395,1.);
#251=VECTOR('',#1396,1.);
#252=VECTOR('',#1397,1.);
#253=VECTOR('',#1400,1.);
#254=VECTOR('',#1401,1.);
#255=VECTOR('',#1414,1.);
#256=VECTOR('',#1417,1.);
#257=VECTOR('',#1420,1.);
#258=VECTOR('',#1431,1.);
#259=VECTOR('',#1432,1.);
#260=VECTOR('',#1439,1.);
#261=VECTOR('',#1442,1.);
#262=VECTOR('',#1453,1.);
#263=VECTOR('',#1454,1.);
#264=VECTOR('',#1457,1.);
#265=VECTOR('',#1458,1.);
#266=VECTOR('',#1459,1.);
#267=VECTOR('',#1466,1.);
#268=VECTOR('',#1467,1.);
#269=VECTOR('',#1470,1.);
#270=VECTOR('',#1471,1.);
#271=VECTOR('',#1476,1.);
#272=VECTOR('',#1485,1.);
#273=VECTOR('',#1486,1.);
#274=VECTOR('',#1495,1.);
#275=VECTOR('',#1498,1.);
#276=VECTOR('',#1505,1.);
#277=VECTOR('',#1506,1.);
#278=VECTOR('',#1511,1.);
#279=VECTOR('',#1512,1.);
#280=VECTOR('',#1513,1.);
#281=VECTOR('',#1516,1.);
#282=VECTOR('',#1517,1.);
#283=VECTOR('',#1526,1.);
#284=VECTOR('',#1527,1.);
#285=VECTOR('',#1530,1.);
#286=VECTOR('',#1543,1.);
#287=VECTOR('',#1546,1.);
#288=VECTOR('',#1549,1.);
#289=VECTOR('',#1550,1.);
#290=VECTOR('',#1551,1.);
#291=VECTOR('',#1554,1.);
#292=VECTOR('',#1561,1.);
#293=VECTOR('',#1564,1.);
#294=VECTOR('',#1569,1.);
#295=VECTOR('',#1574,1.);
#296=ORIENTED_EDGE('',*,*,#570,.F.);
#297=ORIENTED_EDGE('',*,*,#571,.T.);
#298=ORIENTED_EDGE('',*,*,#572,.T.);
#299=ORIENTED_EDGE('',*,*,#573,.T.);
#300=ORIENTED_EDGE('',*,*,#574,.F.);
#301=ORIENTED_EDGE('',*,*,#575,.F.);
#302=ORIENTED_EDGE('',*,*,#574,.T.);
#303=ORIENTED_EDGE('',*,*,#576,.T.);
#304=ORIENTED_EDGE('',*,*,#577,.T.);
#305=ORIENTED_EDGE('',*,*,#578,.F.);
#306=ORIENTED_EDGE('',*,*,#572,.F.);
#307=ORIENTED_EDGE('',*,*,#579,.F.);
#308=ORIENTED_EDGE('',*,*,#580,.F.);
#309=ORIENTED_EDGE('',*,*,#573,.F.);
#310=ORIENTED_EDGE('',*,*,#581,.T.);
#311=ORIENTED_EDGE('',*,*,#571,.F.);
#312=ORIENTED_EDGE('',*,*,#582,.F.);
#313=ORIENTED_EDGE('',*,*,#583,.T.);
#314=ORIENTED_EDGE('',*,*,#576,.F.);
#315=ORIENTED_EDGE('',*,*,#580,.T.);
#316=ORIENTED_EDGE('',*,*,#581,.F.);
#317=ORIENTED_EDGE('',*,*,#578,.T.);
#318=ORIENTED_EDGE('',*,*,#570,.T.);
#319=ORIENTED_EDGE('',*,*,#575,.T.);
#320=ORIENTED_EDGE('',*,*,#584,.F.);
#321=ORIENTED_EDGE('',*,*,#585,.F.);
#322=ORIENTED_EDGE('',*,*,#586,.T.);
#323=ORIENTED_EDGE('',*,*,#584,.T.);
#324=ORIENTED_EDGE('',*,*,#577,.F.);
#325=ORIENTED_EDGE('',*,*,#582,.T.);
#326=ORIENTED_EDGE('',*,*,#579,.T.);
#327=ORIENTED_EDGE('',*,*,#585,.T.);
#328=ORIENTED_EDGE('',*,*,#587,.F.);
#329=ORIENTED_EDGE('',*,*,#587,.T.);
#330=ORIENTED_EDGE('',*,*,#586,.F.);
#331=ORIENTED_EDGE('',*,*,#583,.F.);
#332=ORIENTED_EDGE('',*,*,#588,.F.);
#333=ORIENTED_EDGE('',*,*,#589,.T.);
#334=ORIENTED_EDGE('',*,*,#590,.F.);
#335=ORIENTED_EDGE('',*,*,#591,.T.);
#336=ORIENTED_EDGE('',*,*,#589,.F.);
#337=ORIENTED_EDGE('',*,*,#592,.F.);
#338=ORIENTED_EDGE('',*,*,#592,.T.);
#339=ORIENTED_EDGE('',*,*,#588,.T.);
#340=ORIENTED_EDGE('',*,*,#593,.T.);
#341=ORIENTED_EDGE('',*,*,#590,.T.);
#342=ORIENTED_EDGE('',*,*,#591,.F.);
#343=ORIENTED_EDGE('',*,*,#593,.F.);
#344=ORIENTED_EDGE('',*,*,#594,.F.);
#345=ORIENTED_EDGE('',*,*,#595,.F.);
#346=ORIENTED_EDGE('',*,*,#596,.T.);
#347=ORIENTED_EDGE('',*,*,#597,.T.);
#348=ORIENTED_EDGE('',*,*,#598,.F.);
#349=ORIENTED_EDGE('',*,*,#596,.F.);
#350=ORIENTED_EDGE('',*,*,#599,.F.);
#351=ORIENTED_EDGE('',*,*,#595,.T.);
#352=ORIENTED_EDGE('',*,*,#600,.F.);
#353=ORIENTED_EDGE('',*,*,#598,.T.);
#354=ORIENTED_EDGE('',*,*,#601,.T.);
#355=ORIENTED_EDGE('',*,*,#599,.T.);
#356=ORIENTED_EDGE('',*,*,#597,.F.);
#357=ORIENTED_EDGE('',*,*,#600,.T.);
#358=ORIENTED_EDGE('',*,*,#601,.F.);
#359=ORIENTED_EDGE('',*,*,#594,.T.);
#360=ORIENTED_EDGE('',*,*,#602,.F.);
#361=ORIENTED_EDGE('',*,*,#603,.T.);
#362=ORIENTED_EDGE('',*,*,#604,.T.);
#363=ORIENTED_EDGE('',*,*,#605,.T.);
#364=ORIENTED_EDGE('',*,*,#602,.T.);
#365=ORIENTED_EDGE('',*,*,#606,.T.);
#366=ORIENTED_EDGE('',*,*,#607,.F.);
#367=ORIENTED_EDGE('',*,*,#604,.F.);
#368=ORIENTED_EDGE('',*,*,#603,.F.);
#369=ORIENTED_EDGE('',*,*,#608,.F.);
#370=ORIENTED_EDGE('',*,*,#605,.F.);
#371=ORIENTED_EDGE('',*,*,#609,.T.);
#372=ORIENTED_EDGE('',*,*,#609,.F.);
#373=ORIENTED_EDGE('',*,*,#607,.T.);
#374=ORIENTED_EDGE('',*,*,#606,.F.);
#375=ORIENTED_EDGE('',*,*,#608,.T.);
#376=ORIENTED_EDGE('',*,*,#610,.T.);
#377=ORIENTED_EDGE('',*,*,#611,.T.);
#378=ORIENTED_EDGE('',*,*,#612,.F.);
#379=ORIENTED_EDGE('',*,*,#613,.T.);
#380=ORIENTED_EDGE('',*,*,#610,.F.);
#381=ORIENTED_EDGE('',*,*,#614,.T.);
#382=ORIENTED_EDGE('',*,*,#615,.F.);
#383=ORIENTED_EDGE('',*,*,#612,.T.);
#384=ORIENTED_EDGE('',*,*,#611,.F.);
#385=ORIENTED_EDGE('',*,*,#616,.T.);
#386=ORIENTED_EDGE('',*,*,#613,.F.);
#387=ORIENTED_EDGE('',*,*,#617,.F.);
#388=ORIENTED_EDGE('',*,*,#617,.T.);
#389=ORIENTED_EDGE('',*,*,#615,.T.);
#390=ORIENTED_EDGE('',*,*,#614,.F.);
#391=ORIENTED_EDGE('',*,*,#616,.F.);
#392=ORIENTED_EDGE('',*,*,#618,.F.);
#393=ORIENTED_EDGE('',*,*,#619,.F.);
#394=ORIENTED_EDGE('',*,*,#620,.T.);
#395=ORIENTED_EDGE('',*,*,#621,.T.);
#396=ORIENTED_EDGE('',*,*,#622,.T.);
#397=ORIENTED_EDGE('',*,*,#623,.F.);
#398=ORIENTED_EDGE('',*,*,#624,.F.);
#399=ORIENTED_EDGE('',*,*,#619,.T.);
#400=ORIENTED_EDGE('',*,*,#625,.T.);
#401=ORIENTED_EDGE('',*,*,#626,.F.);
#402=ORIENTED_EDGE('',*,*,#627,.F.);
#403=ORIENTED_EDGE('',*,*,#623,.T.);
#404=ORIENTED_EDGE('',*,*,#628,.F.);
#405=ORIENTED_EDGE('',*,*,#621,.F.);
#406=ORIENTED_EDGE('',*,*,#629,.T.);
#407=ORIENTED_EDGE('',*,*,#626,.T.);
#408=ORIENTED_EDGE('',*,*,#620,.F.);
#409=ORIENTED_EDGE('',*,*,#624,.T.);
#410=ORIENTED_EDGE('',*,*,#627,.T.);
#411=ORIENTED_EDGE('',*,*,#629,.F.);
#412=ORIENTED_EDGE('',*,*,#630,.T.);
#413=ORIENTED_EDGE('',*,*,#631,.T.);
#414=ORIENTED_EDGE('',*,*,#618,.T.);
#415=ORIENTED_EDGE('',*,*,#628,.T.);
#416=ORIENTED_EDGE('',*,*,#625,.F.);
#417=ORIENTED_EDGE('',*,*,#622,.F.);
#418=ORIENTED_EDGE('',*,*,#632,.T.);
#419=ORIENTED_EDGE('',*,*,#633,.F.);
#420=ORIENTED_EDGE('',*,*,#634,.F.);
#421=ORIENTED_EDGE('',*,*,#635,.F.);
#422=ORIENTED_EDGE('',*,*,#636,.F.);
#423=ORIENTED_EDGE('',*,*,#637,.F.);
#424=ORIENTED_EDGE('',*,*,#638,.T.);
#425=ORIENTED_EDGE('',*,*,#637,.T.);
#426=ORIENTED_EDGE('',*,*,#639,.F.);
#427=ORIENTED_EDGE('',*,*,#635,.T.);
#428=ORIENTED_EDGE('',*,*,#640,.F.);
#429=ORIENTED_EDGE('',*,*,#633,.T.);
#430=ORIENTED_EDGE('',*,*,#641,.T.);
#431=ORIENTED_EDGE('',*,*,#630,.F.);
#432=ORIENTED_EDGE('',*,*,#642,.T.);
#433=ORIENTED_EDGE('',*,*,#634,.T.);
#434=ORIENTED_EDGE('',*,*,#640,.T.);
#435=ORIENTED_EDGE('',*,*,#642,.F.);
#436=ORIENTED_EDGE('',*,*,#631,.F.);
#437=ORIENTED_EDGE('',*,*,#641,.F.);
#438=ORIENTED_EDGE('',*,*,#643,.T.);
#439=ORIENTED_EDGE('',*,*,#644,.F.);
#440=ORIENTED_EDGE('',*,*,#645,.F.);
#441=ORIENTED_EDGE('',*,*,#646,.F.);
#442=ORIENTED_EDGE('',*,*,#647,.T.);
#443=ORIENTED_EDGE('',*,*,#646,.T.);
#444=ORIENTED_EDGE('',*,*,#648,.F.);
#445=ORIENTED_EDGE('',*,*,#644,.T.);
#446=ORIENTED_EDGE('',*,*,#649,.T.);
#447=ORIENTED_EDGE('',*,*,#650,.T.);
#448=ORIENTED_EDGE('',*,*,#651,.F.);
#449=ORIENTED_EDGE('',*,*,#632,.F.);
#450=ORIENTED_EDGE('',*,*,#652,.F.);
#451=ORIENTED_EDGE('',*,*,#653,.T.);
#452=ORIENTED_EDGE('',*,*,#654,.F.);
#453=ORIENTED_EDGE('',*,*,#655,.F.);
#454=ORIENTED_EDGE('',*,*,#650,.F.);
#455=ORIENTED_EDGE('',*,*,#656,.T.);
#456=ORIENTED_EDGE('',*,*,#652,.T.);
#457=ORIENTED_EDGE('',*,*,#638,.F.);
#458=ORIENTED_EDGE('',*,*,#651,.T.);
#459=ORIENTED_EDGE('',*,*,#657,.T.);
#460=ORIENTED_EDGE('',*,*,#658,.T.);
#461=ORIENTED_EDGE('',*,*,#657,.F.);
#462=ORIENTED_EDGE('',*,*,#655,.T.);
#463=ORIENTED_EDGE('',*,*,#659,.F.);
#464=ORIENTED_EDGE('',*,*,#660,.F.);
#465=ORIENTED_EDGE('',*,*,#645,.T.);
#466=ORIENTED_EDGE('',*,*,#661,.F.);
#467=ORIENTED_EDGE('',*,*,#662,.F.);
#468=ORIENTED_EDGE('',*,*,#653,.F.);
#469=ORIENTED_EDGE('',*,*,#649,.F.);
#470=ORIENTED_EDGE('',*,*,#654,.T.);
#471=ORIENTED_EDGE('',*,*,#662,.T.);
#472=ORIENTED_EDGE('',*,*,#663,.T.);
#473=ORIENTED_EDGE('',*,*,#658,.F.);
#474=ORIENTED_EDGE('',*,*,#664,.F.);
#475=ORIENTED_EDGE('',*,*,#661,.T.);
#476=ORIENTED_EDGE('',*,*,#648,.T.);
#477=ORIENTED_EDGE('',*,*,#660,.T.);
#478=ORIENTED_EDGE('',*,*,#656,.F.);
#479=ORIENTED_EDGE('',*,*,#659,.T.);
#480=ORIENTED_EDGE('',*,*,#663,.F.);
#481=ORIENTED_EDGE('',*,*,#664,.T.);
#482=ORIENTED_EDGE('',*,*,#665,.T.);
#483=ORIENTED_EDGE('',*,*,#643,.F.);
#484=ORIENTED_EDGE('',*,*,#666,.T.);
#485=ORIENTED_EDGE('',*,*,#667,.F.);
#486=ORIENTED_EDGE('',*,*,#668,.F.);
#487=ORIENTED_EDGE('',*,*,#666,.F.);
#488=ORIENTED_EDGE('',*,*,#647,.F.);
#489=ORIENTED_EDGE('',*,*,#665,.F.);
#490=ORIENTED_EDGE('',*,*,#667,.T.);
#491=ORIENTED_EDGE('',*,*,#669,.F.);
#492=ORIENTED_EDGE('',*,*,#670,.T.);
#493=ORIENTED_EDGE('',*,*,#671,.F.);
#494=ORIENTED_EDGE('',*,*,#668,.T.);
#495=ORIENTED_EDGE('',*,*,#671,.T.);
#496=ORIENTED_EDGE('',*,*,#672,.T.);
#497=ORIENTED_EDGE('',*,*,#669,.T.);
#498=ORIENTED_EDGE('',*,*,#673,.T.);
#499=ORIENTED_EDGE('',*,*,#674,.F.);
#500=ORIENTED_EDGE('',*,*,#636,.T.);
#501=ORIENTED_EDGE('',*,*,#675,.F.);
#502=ORIENTED_EDGE('',*,*,#676,.F.);
#503=ORIENTED_EDGE('',*,*,#677,.T.);
#504=ORIENTED_EDGE('',*,*,#676,.T.);
#505=ORIENTED_EDGE('',*,*,#678,.F.);
#506=ORIENTED_EDGE('',*,*,#679,.F.);
#507=ORIENTED_EDGE('',*,*,#680,.T.);
#508=ORIENTED_EDGE('',*,*,#681,.F.);
#509=ORIENTED_EDGE('',*,*,#678,.T.);
#510=ORIENTED_EDGE('',*,*,#682,.T.);
#511=ORIENTED_EDGE('',*,*,#683,.T.);
#512=ORIENTED_EDGE('',*,*,#682,.F.);
#513=ORIENTED_EDGE('',*,*,#675,.T.);
#514=ORIENTED_EDGE('',*,*,#639,.T.);
#515=ORIENTED_EDGE('',*,*,#674,.T.);
#516=ORIENTED_EDGE('',*,*,#677,.F.);
#517=ORIENTED_EDGE('',*,*,#684,.T.);
#518=ORIENTED_EDGE('',*,*,#685,.F.);
#519=ORIENTED_EDGE('',*,*,#670,.F.);
#520=ORIENTED_EDGE('',*,*,#686,.F.);
#521=ORIENTED_EDGE('',*,*,#673,.F.);
#522=ORIENTED_EDGE('',*,*,#679,.T.);
#523=ORIENTED_EDGE('',*,*,#687,.T.);
#524=ORIENTED_EDGE('',*,*,#684,.F.);
#525=ORIENTED_EDGE('',*,*,#686,.T.);
#526=ORIENTED_EDGE('',*,*,#672,.F.);
#527=ORIENTED_EDGE('',*,*,#685,.T.);
#528=ORIENTED_EDGE('',*,*,#688,.T.);
#529=ORIENTED_EDGE('',*,*,#680,.F.);
#530=ORIENTED_EDGE('',*,*,#683,.F.);
#531=ORIENTED_EDGE('',*,*,#681,.T.);
#532=ORIENTED_EDGE('',*,*,#688,.F.);
#533=ORIENTED_EDGE('',*,*,#687,.F.);
#534=ORIENTED_EDGE('',*,*,#689,.F.);
#535=ORIENTED_EDGE('',*,*,#690,.T.);
#536=ORIENTED_EDGE('',*,*,#691,.T.);
#537=ORIENTED_EDGE('',*,*,#692,.F.);
#538=ORIENTED_EDGE('',*,*,#693,.T.);
#539=ORIENTED_EDGE('',*,*,#694,.F.);
#540=ORIENTED_EDGE('',*,*,#695,.T.);
#541=ORIENTED_EDGE('',*,*,#696,.T.);
#542=ORIENTED_EDGE('',*,*,#690,.F.);
#543=ORIENTED_EDGE('',*,*,#697,.F.);
#544=ORIENTED_EDGE('',*,*,#692,.T.);
#545=ORIENTED_EDGE('',*,*,#698,.T.);
#546=ORIENTED_EDGE('',*,*,#697,.T.);
#547=ORIENTED_EDGE('',*,*,#699,.F.);
#548=ORIENTED_EDGE('',*,*,#700,.F.);
#549=ORIENTED_EDGE('',*,*,#696,.F.);
#550=ORIENTED_EDGE('',*,*,#701,.T.);
#551=ORIENTED_EDGE('',*,*,#702,.F.);
#552=ORIENTED_EDGE('',*,*,#693,.F.);
#553=ORIENTED_EDGE('',*,*,#698,.F.);
#554=ORIENTED_EDGE('',*,*,#691,.F.);
#555=ORIENTED_EDGE('',*,*,#700,.T.);
#556=ORIENTED_EDGE('',*,*,#689,.T.);
#557=ORIENTED_EDGE('',*,*,#703,.F.);
#558=ORIENTED_EDGE('',*,*,#704,.T.);
#559=ORIENTED_EDGE('',*,*,#694,.T.);
#560=ORIENTED_EDGE('',*,*,#704,.F.);
#561=ORIENTED_EDGE('',*,*,#705,.T.);
#562=ORIENTED_EDGE('',*,*,#695,.F.);
#563=ORIENTED_EDGE('',*,*,#699,.T.);
#564=ORIENTED_EDGE('',*,*,#706,.T.);
#565=ORIENTED_EDGE('',*,*,#703,.T.);
#566=ORIENTED_EDGE('',*,*,#702,.T.);
#567=ORIENTED_EDGE('',*,*,#705,.F.);
#568=ORIENTED_EDGE('',*,*,#706,.F.);
#569=ORIENTED_EDGE('',*,*,#701,.F.);
#570=EDGE_CURVE('',#707,#708,#783,.T.);
#571=EDGE_CURVE('',#707,#709,#142,.F.);
#572=EDGE_CURVE('',#709,#710,#90,.T.);
#573=EDGE_CURVE('',#710,#711,#143,.F.);
#574=EDGE_CURVE('',#708,#711,#91,.T.);
#575=EDGE_CURVE('',#708,#712,#144,.F.);
#576=EDGE_CURVE('',#711,#713,#145,.T.);
#577=EDGE_CURVE('',#713,#712,#146,.T.);
#578=EDGE_CURVE('',#710,#709,#147,.T.);
#579=EDGE_CURVE('',#714,#707,#784,.T.);
#580=EDGE_CURVE('',#711,#714,#92,.T.);
#581=EDGE_CURVE('',#710,#709,#93,.T.);
#582=EDGE_CURVE('',#715,#714,#148,.T.);
#583=EDGE_CURVE('',#715,#713,#149,.T.);
#584=EDGE_CURVE('',#716,#712,#94,.T.);
#585=EDGE_CURVE('',#707,#716,#150,.F.);
#586=EDGE_CURVE('',#713,#716,#151,.T.);
#587=EDGE_CURVE('',#715,#716,#95,.T.);
#588=EDGE_CURVE('',#717,#718,#152,.T.);
#589=EDGE_CURVE('',#717,#719,#96,.T.);
#590=EDGE_CURVE('',#720,#719,#153,.F.);
#591=EDGE_CURVE('',#720,#718,#97,.T.);
#592=EDGE_CURVE('',#719,#717,#98,.T.);
#593=EDGE_CURVE('',#718,#720,#99,.T.);
#594=EDGE_CURVE('',#721,#722,#154,.T.);
#595=EDGE_CURVE('',#722,#721,#100,.T.);
#596=EDGE_CURVE('',#723,#724,#101,.T.);
#597=EDGE_CURVE('',#724,#723,#155,.T.);
#598=EDGE_CURVE('',#724,#721,#156,.T.);
#599=EDGE_CURVE('',#722,#723,#157,.F.);
#600=EDGE_CURVE('',#724,#723,#102,.T.);
#601=EDGE_CURVE('',#721,#722,#103,.T.);
#602=EDGE_CURVE('',#725,#726,#104,.T.);
#603=EDGE_CURVE('',#725,#727,#158,.F.);
#604=EDGE_CURVE('',#727,#728,#105,.T.);
#605=EDGE_CURVE('',#728,#726,#159,.T.);
#606=EDGE_CURVE('',#726,#725,#160,.T.);
#607=EDGE_CURVE('',#728,#727,#161,.T.);
#608=EDGE_CURVE('',#726,#725,#106,.T.);
#609=EDGE_CURVE('',#728,#727,#107,.T.);
#610=EDGE_CURVE('',#729,#730,#108,.T.);
#611=EDGE_CURVE('',#730,#731,#162,.F.);
#612=EDGE_CURVE('',#732,#731,#109,.T.);
#613=EDGE_CURVE('',#732,#729,#163,.T.);
#614=EDGE_CURVE('',#729,#730,#164,.T.);
#615=EDGE_CURVE('',#732,#731,#165,.T.);
#616=EDGE_CURVE('',#730,#729,#110,.T.);
#617=EDGE_CURVE('',#731,#732,#111,.T.);
#618=EDGE_CURVE('',#733,#734,#166,.T.);
#619=EDGE_CURVE('',#735,#733,#167,.T.);
#620=EDGE_CURVE('',#735,#736,#168,.T.);
#621=EDGE_CURVE('',#736,#734,#169,.T.);
#622=EDGE_CURVE('',#733,#737,#170,.T.);
#623=EDGE_CURVE('',#738,#737,#171,.T.);
#624=EDGE_CURVE('',#735,#738,#172,.T.);
#625=EDGE_CURVE('',#737,#739,#173,.T.);
#626=EDGE_CURVE('',#740,#739,#174,.T.);
#627=EDGE_CURVE('',#738,#740,#175,.T.);
#628=EDGE_CURVE('',#734,#739,#176,.T.);
#629=EDGE_CURVE('',#736,#740,#177,.T.);
#630=EDGE_CURVE('',#741,#742,#112,.T.);
#631=EDGE_CURVE('',#742,#741,#113,.T.);
#632=EDGE_CURVE('',#743,#744,#114,.T.);
#633=EDGE_CURVE('',#745,#744,#178,.T.);
#634=EDGE_CURVE('',#746,#745,#115,.T.);
#635=EDGE_CURVE('',#747,#746,#179,.T.);
#636=EDGE_CURVE('',#748,#747,#116,.T.);
#637=EDGE_CURVE('',#743,#748,#180,.T.);
#638=EDGE_CURVE('',#744,#743,#117,.T.);
#639=EDGE_CURVE('',#747,#748,#118,.T.);
#640=EDGE_CURVE('',#745,#746,#119,.T.);
#641=EDGE_CURVE('',#745,#742,#181,.T.);
#642=EDGE_CURVE('',#741,#746,#182,.F.);
#643=EDGE_CURVE('',#749,#750,#120,.T.);
#644=EDGE_CURVE('',#751,#750,#183,.T.);
#645=EDGE_CURVE('',#752,#751,#121,.T.);
#646=EDGE_CURVE('',#749,#752,#184,.T.);
#647=EDGE_CURVE('',#750,#749,#122,.T.);
#648=EDGE_CURVE('',#751,#752,#123,.T.);
#649=EDGE_CURVE('',#753,#754,#785,.T.);
#650=EDGE_CURVE('',#754,#755,#124,.T.);
#651=EDGE_CURVE('',#744,#755,#185,.F.);
#652=EDGE_CURVE('',#753,#743,#186,.F.);
#653=EDGE_CURVE('',#754,#756,#187,.F.);
#654=EDGE_CURVE('',#757,#756,#188,.T.);
#655=EDGE_CURVE('',#755,#757,#189,.T.);
#656=EDGE_CURVE('',#758,#753,#786,.T.);
#657=EDGE_CURVE('',#755,#758,#125,.T.);
#658=EDGE_CURVE('',#759,#758,#190,.T.);
#659=EDGE_CURVE('',#759,#757,#191,.T.);
#660=EDGE_CURVE('',#752,#753,#192,.F.);
#661=EDGE_CURVE('',#760,#751,#193,.T.);
#662=EDGE_CURVE('',#756,#760,#126,.T.);
#663=EDGE_CURVE('',#760,#757,#194,.T.);
#664=EDGE_CURVE('',#760,#759,#127,.T.);
#665=EDGE_CURVE('',#761,#750,#195,.T.);
#666=EDGE_CURVE('',#749,#762,#196,.F.);
#667=EDGE_CURVE('',#761,#762,#128,.T.);
#668=EDGE_CURVE('',#762,#761,#129,.T.);
#669=EDGE_CURVE('',#763,#762,#197,.T.);
#670=EDGE_CURVE('',#763,#764,#130,.T.);
#671=EDGE_CURVE('',#761,#764,#198,.T.);
#672=EDGE_CURVE('',#764,#763,#131,.T.);
#673=EDGE_CURVE('',#765,#766,#787,.T.);
#674=EDGE_CURVE('',#748,#766,#199,.F.);
#675=EDGE_CURVE('',#767,#747,#200,.F.);
#676=EDGE_CURVE('',#765,#767,#132,.T.);
#677=EDGE_CURVE('',#768,#765,#201,.T.);
#678=EDGE_CURVE('',#769,#767,#202,.T.);
#679=EDGE_CURVE('',#768,#769,#203,.T.);
#680=EDGE_CURVE('',#770,#771,#204,.F.);
#681=EDGE_CURVE('',#769,#771,#205,.T.);
#682=EDGE_CURVE('',#767,#770,#133,.T.);
#683=EDGE_CURVE('',#766,#770,#788,.T.);
#684=EDGE_CURVE('',#768,#772,#134,.T.);
#685=EDGE_CURVE('',#764,#772,#206,.F.);
#686=EDGE_CURVE('',#766,#763,#207,.T.);
#687=EDGE_CURVE('',#769,#772,#208,.T.);
#688=EDGE_CURVE('',#772,#771,#135,.T.);
#689=EDGE_CURVE('',#773,#774,#789,.T.);
#690=EDGE_CURVE('',#773,#775,#136,.T.);
#691=EDGE_CURVE('',#775,#776,#209,.F.);
#692=EDGE_CURVE('',#777,#776,#137,.T.);
#693=EDGE_CURVE('',#777,#774,#210,.F.);
#694=EDGE_CURVE('',#778,#773,#211,.T.);
#695=EDGE_CURVE('',#778,#779,#212,.T.);
#696=EDGE_CURVE('',#779,#775,#213,.T.);
#697=EDGE_CURVE('',#777,#776,#214,.T.);
#698=EDGE_CURVE('',#776,#777,#138,.T.);
#699=EDGE_CURVE('',#780,#781,#215,.F.);
#700=EDGE_CURVE('',#775,#780,#139,.T.);
#701=EDGE_CURVE('',#779,#781,#216,.T.);
#702=EDGE_CURVE('',#774,#780,#790,.T.);
#703=EDGE_CURVE('',#782,#774,#217,.T.);
#704=EDGE_CURVE('',#782,#778,#140,.T.);
#705=EDGE_CURVE('',#782,#779,#218,.T.);
#706=EDGE_CURVE('',#781,#782,#141,.T.);
#707=VERTEX_POINT('',#1588);
#708=VERTEX_POINT('',#1589);
#709=VERTEX_POINT('',#1591);
#710=VERTEX_POINT('',#1593);
#711=VERTEX_POINT('',#1595);
#712=VERTEX_POINT('',#1599);
#713=VERTEX_POINT('',#1601);
#714=VERTEX_POINT('',#1611);
#715=VERTEX_POINT('',#1616);
#716=VERTEX_POINT('',#1621);
#717=VERTEX_POINT('',#1631);
#718=VERTEX_POINT('',#1632);
#719=VERTEX_POINT('',#1634);
#720=VERTEX_POINT('',#1636);
#721=VERTEX_POINT('',#1646);
#722=VERTEX_POINT('',#1647);
#723=VERTEX_POINT('',#1651);
#724=VERTEX_POINT('',#1652);
#725=VERTEX_POINT('',#1665);
#726=VERTEX_POINT('',#1666);
#727=VERTEX_POINT('',#1668);
#728=VERTEX_POINT('',#1670);
#729=VERTEX_POINT('',#1684);
#730=VERTEX_POINT('',#1685);
#731=VERTEX_POINT('',#1687);
#732=VERTEX_POINT('',#1689);
#733=VERTEX_POINT('',#1703);
#734=VERTEX_POINT('',#1704);
#735=VERTEX_POINT('',#1706);
#736=VERTEX_POINT('',#1708);
#737=VERTEX_POINT('',#1712);
#738=VERTEX_POINT('',#1714);
#739=VERTEX_POINT('',#1718);
#740=VERTEX_POINT('',#1720);
#741=VERTEX_POINT('',#1728);
#742=VERTEX_POINT('',#1729);
#743=VERTEX_POINT('',#1733);
#744=VERTEX_POINT('',#1734);
#745=VERTEX_POINT('',#1736);
#746=VERTEX_POINT('',#1738);
#747=VERTEX_POINT('',#1740);
#748=VERTEX_POINT('',#1742);
#749=VERTEX_POINT('',#1754);
#750=VERTEX_POINT('',#1755);
#751=VERTEX_POINT('',#1757);
#752=VERTEX_POINT('',#1759);
#753=VERTEX_POINT('',#1770);
#754=VERTEX_POINT('',#1771);
#755=VERTEX_POINT('',#1773);
#756=VERTEX_POINT('',#1778);
#757=VERTEX_POINT('',#1780);
#758=VERTEX_POINT('',#1788);
#759=VERTEX_POINT('',#1792);
#760=VERTEX_POINT('',#1797);
#761=VERTEX_POINT('',#1806);
#762=VERTEX_POINT('',#1808);
#763=VERTEX_POINT('',#1814);
#764=VERTEX_POINT('',#1816);
#765=VERTEX_POINT('',#1826);
#766=VERTEX_POINT('',#1827);
#767=VERTEX_POINT('',#1830);
#768=VERTEX_POINT('',#1834);
#769=VERTEX_POINT('',#1836);
#770=VERTEX_POINT('',#1840);
#771=VERTEX_POINT('',#1841);
#772=VERTEX_POINT('',#1852);
#773=VERTEX_POINT('',#1867);
#774=VERTEX_POINT('',#1868);
#775=VERTEX_POINT('',#1870);
#776=VERTEX_POINT('',#1872);
#777=VERTEX_POINT('',#1874);
#778=VERTEX_POINT('',#1878);
#779=VERTEX_POINT('',#1880);
#780=VERTEX_POINT('',#1888);
#781=VERTEX_POINT('',#1889);
#782=VERTEX_POINT('',#1900);
#783=B_SPLINE_CURVE_WITH_KNOTS('',3,(#1583,#1584,#1585,#1586,#1587),
 .UNSPECIFIED.,.F.,.F.,(4,1,4),(1.97158823605786E-7,0.0039075700995159,
0.0078149430402082),.UNSPECIFIED.);
#784=B_SPLINE_CURVE_WITH_KNOTS('',3,(#1606,#1607,#1608,#1609,#1610),
 .UNSPECIFIED.,.F.,.F.,(4,1,4),(1.97248429205841E-7,0.00390756809104164,
0.00781493893365408),.UNSPECIFIED.);
#785=B_SPLINE_CURVE_WITH_KNOTS('',3,(#1765,#1766,#1767,#1768,#1769),
 .UNSPECIFIED.,.F.,.F.,(4,1,4),(1.97158824742649E-7,0.00390757009951647,
0.0078149430402082),.UNSPECIFIED.);
#786=B_SPLINE_CURVE_WITH_KNOTS('',3,(#1783,#1784,#1785,#1786,#1787),
 .UNSPECIFIED.,.F.,.F.,(4,1,4),(1.97248429205841E-7,0.00390756809104126,
0.00781493893365332),.UNSPECIFIED.);
#787=B_SPLINE_CURVE_WITH_KNOTS('',3,(#1821,#1822,#1823,#1824,#1825),
 .UNSPECIFIED.,.F.,.F.,(4,1,4),(1.97248429205841E-7,0.0039075680910382,
0.0078149389336472),.UNSPECIFIED.);
#788=B_SPLINE_CURVE_WITH_KNOTS('',3,(#1845,#1846,#1847,#1848,#1849),
 .UNSPECIFIED.,.F.,.F.,(4,1,4),(1.97158824742652E-7,0.00390757009951879,
0.00781494304021284),.UNSPECIFIED.);
#789=B_SPLINE_CURVE_WITH_KNOTS('',3,(#1862,#1863,#1864,#1865,#1866),
 .UNSPECIFIED.,.F.,.F.,(4,1,4),(1.97248429205841E-7,0.00390756809103864,
0.00781493893364807),.UNSPECIFIED.);
#790=B_SPLINE_CURVE_WITH_KNOTS('',3,(#1893,#1894,#1895,#1896,#1897),
 .UNSPECIFIED.,.F.,.F.,(4,1,4),(1.97158823480995E-7,0.00390757009951816,
0.00781494304021284),.UNSPECIFIED.);
#791=EDGE_LOOP('',(#296,#297,#298,#299,#300));
#792=EDGE_LOOP('',(#301,#302,#303,#304));
#793=EDGE_LOOP('',(#305,#306));
#794=EDGE_LOOP('',(#307,#308,#309,#310,#311));
#795=EDGE_LOOP('',(#312,#313,#314,#315));
#796=EDGE_LOOP('',(#316,#317));
#797=EDGE_LOOP('',(#318,#319,#320,#321));
#798=EDGE_LOOP('',(#322,#323,#324));
#799=EDGE_LOOP('',(#325,#326,#327,#328));
#800=EDGE_LOOP('',(#329,#330,#331));
#801=EDGE_LOOP('',(#332,#333,#334,#335));
#802=EDGE_LOOP('',(#336,#337));
#803=EDGE_LOOP('',(#338,#339,#340,#341));
#804=EDGE_LOOP('',(#342,#343));
#805=EDGE_LOOP('',(#344,#345));
#806=EDGE_LOOP('',(#346,#347));
#807=EDGE_LOOP('',(#348,#349,#350,#351));
#808=EDGE_LOOP('',(#352,#353,#354,#355));
#809=EDGE_LOOP('',(#356,#357));
#810=EDGE_LOOP('',(#358,#359));
#811=EDGE_LOOP('',(#360,#361,#362,#363));
#812=EDGE_LOOP('',(#364,#365));
#813=EDGE_LOOP('',(#366,#367));
#814=EDGE_LOOP('',(#368,#369,#370,#371));
#815=EDGE_LOOP('',(#372,#373));
#816=EDGE_LOOP('',(#374,#375));
#817=EDGE_LOOP('',(#376,#377,#378,#379));
#818=EDGE_LOOP('',(#380,#381));
#819=EDGE_LOOP('',(#382,#383));
#820=EDGE_LOOP('',(#384,#385,#386,#387));
#821=EDGE_LOOP('',(#388,#389));
#822=EDGE_LOOP('',(#390,#391));
#823=EDGE_LOOP('',(#392,#393,#394,#395));
#824=EDGE_LOOP('',(#396,#397,#398,#399));
#825=EDGE_LOOP('',(#400,#401,#402,#403));
#826=EDGE_LOOP('',(#404,#405,#406,#407));
#827=EDGE_LOOP('',(#408,#409,#410,#411));
#828=EDGE_LOOP('',(#412,#413));
#829=EDGE_LOOP('',(#414,#415,#416,#417));
#830=EDGE_LOOP('',(#418,#419,#420,#421,#422,#423));
#831=EDGE_LOOP('',(#424,#425,#426,#427,#428,#429));
#832=EDGE_LOOP('',(#430,#431,#432,#433));
#833=EDGE_LOOP('',(#434,#435,#436,#437));
#834=EDGE_LOOP('',(#438,#439,#440,#441));
#835=EDGE_LOOP('',(#442,#443,#444,#445));
#836=EDGE_LOOP('',(#446,#447,#448,#449,#450));
#837=EDGE_LOOP('',(#451,#452,#453,#454));
#838=EDGE_LOOP('',(#455,#456,#457,#458,#459));
#839=EDGE_LOOP('',(#460,#461,#462,#463));
#840=EDGE_LOOP('',(#464,#465,#466,#467,#468,#469));
#841=EDGE_LOOP('',(#470,#471,#472));
#842=EDGE_LOOP('',(#473,#474,#475,#476,#477,#478));
#843=EDGE_LOOP('',(#479,#480,#481));
#844=EDGE_LOOP('',(#482,#483,#484,#485));
#845=EDGE_LOOP('',(#486,#487,#488,#489));
#846=EDGE_LOOP('',(#490,#491,#492,#493));
#847=EDGE_LOOP('',(#494,#495,#496,#497));
#848=EDGE_LOOP('',(#498,#499,#500,#501,#502));
#849=EDGE_LOOP('',(#503,#504,#505,#506));
#850=EDGE_LOOP('',(#507,#508,#509,#510));
#851=EDGE_LOOP('',(#511,#512,#513,#514,#515));
#852=EDGE_LOOP('',(#516,#517,#518,#519,#520,#521));
#853=EDGE_LOOP('',(#522,#523,#524));
#854=EDGE_LOOP('',(#525,#526,#527,#528,#529,#530));
#855=EDGE_LOOP('',(#531,#532,#533));
#856=EDGE_LOOP('',(#534,#535,#536,#537,#538));
#857=EDGE_LOOP('',(#539,#540,#541,#542));
#858=EDGE_LOOP('',(#543,#544));
#859=EDGE_LOOP('',(#545,#546));
#860=EDGE_LOOP('',(#547,#548,#549,#550));
#861=EDGE_LOOP('',(#551,#552,#553,#554,#555));
#862=EDGE_LOOP('',(#556,#557,#558,#559));
#863=EDGE_LOOP('',(#560,#561,#562));
#864=EDGE_LOOP('',(#563,#564,#565,#566));
#865=EDGE_LOOP('',(#567,#568,#569));
#866=FACE_BOUND('',#791,.T.);
#867=FACE_BOUND('',#792,.T.);
#868=FACE_BOUND('',#793,.T.);
#869=FACE_BOUND('',#794,.T.);
#870=FACE_BOUND('',#795,.T.);
#871=FACE_BOUND('',#796,.T.);
#872=FACE_BOUND('',#797,.T.);
#873=FACE_BOUND('',#798,.T.);
#874=FACE_BOUND('',#799,.T.);
#875=FACE_BOUND('',#800,.T.);
#876=FACE_BOUND('',#801,.T.);
#877=FACE_BOUND('',#802,.T.);
#878=FACE_BOUND('',#803,.T.);
#879=FACE_BOUND('',#804,.T.);
#880=FACE_BOUND('',#805,.T.);
#881=FACE_BOUND('',#806,.T.);
#882=FACE_BOUND('',#807,.T.);
#883=FACE_BOUND('',#808,.T.);
#884=FACE_BOUND('',#809,.T.);
#885=FACE_BOUND('',#810,.T.);
#886=FACE_BOUND('',#811,.T.);
#887=FACE_BOUND('',#812,.T.);
#888=FACE_BOUND('',#813,.T.);
#889=FACE_BOUND('',#814,.T.);
#890=FACE_BOUND('',#815,.T.);
#891=FACE_BOUND('',#816,.T.);
#892=FACE_BOUND('',#817,.T.);
#893=FACE_BOUND('',#818,.T.);
#894=FACE_BOUND('',#819,.T.);
#895=FACE_BOUND('',#820,.T.);
#896=FACE_BOUND('',#821,.T.);
#897=FACE_BOUND('',#822,.T.);
#898=FACE_BOUND('',#823,.T.);
#899=FACE_BOUND('',#824,.T.);
#900=FACE_BOUND('',#825,.T.);
#901=FACE_BOUND('',#826,.T.);
#902=FACE_BOUND('',#827,.T.);
#903=FACE_BOUND('',#828,.T.);
#904=FACE_BOUND('',#829,.T.);
#905=FACE_BOUND('',#830,.T.);
#906=FACE_BOUND('',#831,.T.);
#907=FACE_BOUND('',#832,.T.);
#908=FACE_BOUND('',#833,.T.);
#909=FACE_BOUND('',#834,.T.);
#910=FACE_BOUND('',#835,.T.);
#911=FACE_BOUND('',#836,.T.);
#912=FACE_BOUND('',#837,.T.);
#913=FACE_BOUND('',#838,.T.);
#914=FACE_BOUND('',#839,.T.);
#915=FACE_BOUND('',#840,.T.);
#916=FACE_BOUND('',#841,.T.);
#917=FACE_BOUND('',#842,.T.);
#918=FACE_BOUND('',#843,.T.);
#919=FACE_BOUND('',#844,.T.);
#920=FACE_BOUND('',#845,.T.);
#921=FACE_BOUND('',#846,.T.);
#922=FACE_BOUND('',#847,.T.);
#923=FACE_BOUND('',#848,.T.);
#924=FACE_BOUND('',#849,.T.);
#925=FACE_BOUND('',#850,.T.);
#926=FACE_BOUND('',#851,.T.);
#927=FACE_BOUND('',#852,.T.);
#928=FACE_BOUND('',#853,.T.);
#929=FACE_BOUND('',#854,.T.);
#930=FACE_BOUND('',#855,.T.);
#931=FACE_BOUND('',#856,.T.);
#932=FACE_BOUND('',#857,.T.);
#933=FACE_BOUND('',#858,.T.);
#934=FACE_BOUND('',#859,.T.);
#935=FACE_BOUND('',#860,.T.);
#936=FACE_BOUND('',#861,.T.);
#937=FACE_BOUND('',#862,.T.);
#938=FACE_BOUND('',#863,.T.);
#939=FACE_BOUND('',#864,.T.);
#940=FACE_BOUND('',#865,.T.);
#941=CONICAL_SURFACE('',#1106,0.3,0.0299910048568779);
#942=CONICAL_SURFACE('',#1111,0.3,0.0299910048568779);
#943=CONICAL_SURFACE('',#1189,0.3,0.0299910048568779);
#944=CONICAL_SURFACE('',#1192,0.3,0.0299910048568779);
#945=CONICAL_SURFACE('',#1209,0.3,0.0299910048568779);
#946=CONICAL_SURFACE('',#1214,0.3,0.0299910048568779);
#947=CONICAL_SURFACE('',#1222,0.3,0.0299910048568779);
#948=CONICAL_SURFACE('',#1231,0.3,0.0299910048568779);
#949=ADVANCED_FACE('',(#866),#941,.T.);
#950=ADVANCED_FACE('',(#867),#44,.T.);
#951=ADVANCED_FACE('',(#868),#45,.F.);
#952=ADVANCED_FACE('',(#869),#942,.T.);
#953=ADVANCED_FACE('',(#870),#46,.T.);
#954=ADVANCED_FACE('',(#871),#47,.F.);
#955=ADVANCED_FACE('',(#872),#24,.F.);
#956=ADVANCED_FACE('',(#873),#48,.T.);
#957=ADVANCED_FACE('',(#874),#25,.F.);
#958=ADVANCED_FACE('',(#875),#49,.T.);
#959=ADVANCED_FACE('',(#876),#26,.T.);
#960=ADVANCED_FACE('',(#877),#50,.F.);
#961=ADVANCED_FACE('',(#878),#27,.T.);
#962=ADVANCED_FACE('',(#879),#51,.F.);
#963=ADVANCED_FACE('',(#880),#52,.F.);
#964=ADVANCED_FACE('',(#881),#53,.T.);
#965=ADVANCED_FACE('',(#882),#28,.T.);
#966=ADVANCED_FACE('',(#883),#29,.T.);
#967=ADVANCED_FACE('',(#884),#54,.T.);
#968=ADVANCED_FACE('',(#885),#55,.F.);
#969=ADVANCED_FACE('',(#886),#30,.T.);
#970=ADVANCED_FACE('',(#887),#56,.T.);
#971=ADVANCED_FACE('',(#888),#57,.F.);
#972=ADVANCED_FACE('',(#889),#31,.T.);
#973=ADVANCED_FACE('',(#890),#58,.F.);
#974=ADVANCED_FACE('',(#891),#59,.T.);
#975=ADVANCED_FACE('',(#892),#32,.T.);
#976=ADVANCED_FACE('',(#893),#60,.T.);
#977=ADVANCED_FACE('',(#894),#61,.F.);
#978=ADVANCED_FACE('',(#895),#33,.T.);
#979=ADVANCED_FACE('',(#896),#62,.F.);
#980=ADVANCED_FACE('',(#897),#63,.T.);
#981=ADVANCED_FACE('',(#898),#64,.T.);
#982=ADVANCED_FACE('',(#899),#65,.F.);
#983=ADVANCED_FACE('',(#900),#66,.F.);
#984=ADVANCED_FACE('',(#901),#67,.T.);
#985=ADVANCED_FACE('',(#902),#68,.T.);
#986=ADVANCED_FACE('',(#903,#904),#69,.F.);
#987=ADVANCED_FACE('',(#905),#70,.F.);
#988=ADVANCED_FACE('',(#906),#71,.F.);
#989=ADVANCED_FACE('',(#907),#34,.F.);
#990=ADVANCED_FACE('',(#908),#35,.F.);
#991=ADVANCED_FACE('',(#909),#72,.F.);
#992=ADVANCED_FACE('',(#910),#73,.F.);
#993=ADVANCED_FACE('',(#911),#943,.F.);
#994=ADVANCED_FACE('',(#912),#74,.F.);
#995=ADVANCED_FACE('',(#913),#944,.F.);
#996=ADVANCED_FACE('',(#914),#75,.F.);
#997=ADVANCED_FACE('',(#915),#36,.F.);
#998=ADVANCED_FACE('',(#916),#76,.T.);
#999=ADVANCED_FACE('',(#917),#37,.F.);
#1000=ADVANCED_FACE('',(#918),#77,.T.);
#1001=ADVANCED_FACE('',(#919),#38,.F.);
#1002=ADVANCED_FACE('',(#920),#39,.F.);
#1003=ADVANCED_FACE('',(#921),#78,.F.);
#1004=ADVANCED_FACE('',(#922),#79,.F.);
#1005=ADVANCED_FACE('',(#923),#945,.F.);
#1006=ADVANCED_FACE('',(#924),#80,.F.);
#1007=ADVANCED_FACE('',(#925),#81,.F.);
#1008=ADVANCED_FACE('',(#926),#946,.F.);
#1009=ADVANCED_FACE('',(#927),#40,.F.);
#1010=ADVANCED_FACE('',(#928),#82,.T.);
#1011=ADVANCED_FACE('',(#929),#41,.F.);
#1012=ADVANCED_FACE('',(#930),#83,.T.);
#1013=ADVANCED_FACE('',(#931),#947,.T.);
#1014=ADVANCED_FACE('',(#932),#84,.T.);
#1015=ADVANCED_FACE('',(#933),#85,.F.);
#1016=ADVANCED_FACE('',(#934),#86,.F.);
#1017=ADVANCED_FACE('',(#935),#87,.T.);
#1018=ADVANCED_FACE('',(#936),#948,.T.);
#1019=ADVANCED_FACE('',(#937),#42,.F.);
#1020=ADVANCED_FACE('',(#938),#88,.T.);
#1021=ADVANCED_FACE('',(#939),#43,.F.);
#1022=ADVANCED_FACE('',(#940),#89,.T.);
#1023=CLOSED_SHELL('',(#949,#950,#951,#952,#953,#954,#955,#956,#957,#958));
#1024=CLOSED_SHELL('',(#959,#960,#961,#962));
#1025=CLOSED_SHELL('',(#963,#964,#965,#966,#967,#968));
#1026=CLOSED_SHELL('',(#969,#970,#971,#972,#973,#974));
#1027=CLOSED_SHELL('',(#975,#976,#977,#978,#979,#980));
#1028=CLOSED_SHELL('',(#981,#982,#983,#984,#985,#986,#987,#988,#989,#990,
#991,#992,#993,#994,#995,#996,#997,#998,#999,#1000,#1001,#1002,#1003,#1004,
#1005,#1006,#1007,#1008,#1009,#1010,#1011,#1012));
#1029=CLOSED_SHELL('',(#1013,#1014,#1015,#1016,#1017,#1018,#1019,#1020,
#1021,#1022));
#1030=STYLED_ITEM('',(#1037),#1084);
#1031=STYLED_ITEM('',(#1038),#1085);
#1032=STYLED_ITEM('',(#1039),#1086);
#1033=STYLED_ITEM('',(#1040),#1087);
#1034=STYLED_ITEM('',(#1041),#1088);
#1035=STYLED_ITEM('',(#1042),#1089);
#1036=STYLED_ITEM('',(#1043),#1090);
#1037=PRESENTATION_STYLE_ASSIGNMENT((#1044));
#1038=PRESENTATION_STYLE_ASSIGNMENT((#1045));
#1039=PRESENTATION_STYLE_ASSIGNMENT((#1046));
#1040=PRESENTATION_STYLE_ASSIGNMENT((#1047));
#1041=PRESENTATION_STYLE_ASSIGNMENT((#1048));
#1042=PRESENTATION_STYLE_ASSIGNMENT((#1049));
#1043=PRESENTATION_STYLE_ASSIGNMENT((#1050));
#1044=SURFACE_STYLE_USAGE(.BOTH.,#1051);
#1045=SURFACE_STYLE_USAGE(.BOTH.,#1052);
#1046=SURFACE_STYLE_USAGE(.BOTH.,#1053);
#1047=SURFACE_STYLE_USAGE(.BOTH.,#1054);
#1048=SURFACE_STYLE_USAGE(.BOTH.,#1055);
#1049=SURFACE_STYLE_USAGE(.BOTH.,#1056);
#1050=SURFACE_STYLE_USAGE(.BOTH.,#1057);
#1051=SURFACE_SIDE_STYLE('',(#1058));
#1052=SURFACE_SIDE_STYLE('',(#1059));
#1053=SURFACE_SIDE_STYLE('',(#1060));
#1054=SURFACE_SIDE_STYLE('',(#1061));
#1055=SURFACE_SIDE_STYLE('',(#1062));
#1056=SURFACE_SIDE_STYLE('',(#1063));
#1057=SURFACE_SIDE_STYLE('',(#1064));
#1058=SURFACE_STYLE_FILL_AREA(#1065);
#1059=SURFACE_STYLE_FILL_AREA(#1066);
#1060=SURFACE_STYLE_FILL_AREA(#1067);
#1061=SURFACE_STYLE_FILL_AREA(#1068);
#1062=SURFACE_STYLE_FILL_AREA(#1069);
#1063=SURFACE_STYLE_FILL_AREA(#1070);
#1064=SURFACE_STYLE_FILL_AREA(#1071);
#1065=FILL_AREA_STYLE('',(#1072));
#1066=FILL_AREA_STYLE('',(#1073));
#1067=FILL_AREA_STYLE('',(#1074));
#1068=FILL_AREA_STYLE('',(#1075));
#1069=FILL_AREA_STYLE('',(#1076));
#1070=FILL_AREA_STYLE('',(#1077));
#1071=FILL_AREA_STYLE('',(#1078));
#1072=FILL_AREA_STYLE_COLOUR('',#1079);
#1073=FILL_AREA_STYLE_COLOUR('',#1080);
#1074=FILL_AREA_STYLE_COLOUR('',#1081);
#1075=FILL_AREA_STYLE_COLOUR('',#1082);
#1076=FILL_AREA_STYLE_COLOUR('',#1082);
#1077=FILL_AREA_STYLE_COLOUR('',#1083);
#1078=FILL_AREA_STYLE_COLOUR('',#1079);
#1079=COLOUR_RGB('',0.980392156862745,0.713725490196078,0.00392156862745098);
#1080=COLOUR_RGB('',0.141176470588235,0.694117647058824,0.650980392156863);
#1081=COLOUR_RGB('',0.615686274509804,0.811764705882353,0.929411764705882);
#1082=COLOUR_RGB('',0.490196078431373,0.0862745098039216,0.556862745098039);
#1083=COLOUR_RGB('',0.498039215686275,0.498039215686275,0.498039215686275);
#1084=MANIFOLD_SOLID_BREP('support1',#1023);
#1085=MANIFOLD_SOLID_BREP('wire',#1024);
#1086=MANIFOLD_SOLID_BREP('base',#1025);
#1087=MANIFOLD_SOLID_BREP('end1',#1026);
#1088=MANIFOLD_SOLID_BREP('end2',#1027);
#1089=MANIFOLD_SOLID_BREP('domain',#1028);
#1090=MANIFOLD_SOLID_BREP('support2',#1029);
#1091=SHAPE_DEFINITION_REPRESENTATION(#1949,#1098);
#1092=SHAPE_DEFINITION_REPRESENTATION(#1950,#1099);
#1093=SHAPE_DEFINITION_REPRESENTATION(#1951,#1100);
#1094=SHAPE_DEFINITION_REPRESENTATION(#1952,#1101);
#1095=SHAPE_DEFINITION_REPRESENTATION(#1953,#1102);
#1096=SHAPE_DEFINITION_REPRESENTATION(#1954,#1103);
#1097=SHAPE_DEFINITION_REPRESENTATION(#1955,#1104);
#1098=SHAPE_REPRESENTATION('support1',(#1105),#1914);
#1099=SHAPE_REPRESENTATION('wire',(#1122),#1915);
#1100=SHAPE_REPRESENTATION('base',(#1131),#1916);
#1101=SHAPE_REPRESENTATION('end1',(#1142),#1917);
#1102=SHAPE_REPRESENTATION('end2',(#1153),#1918);
#1103=SHAPE_REPRESENTATION('domain',(#1164),#1919);
#1104=SHAPE_REPRESENTATION('support2',(#1221),#1920);
#1105=AXIS2_PLACEMENT_3D('',#1581,#1238,#1239);
#1106=AXIS2_PLACEMENT_3D('',#1582,#1240,#1241);
#1107=AXIS2_PLACEMENT_3D('',#1592,#1243,#1244);
#1108=AXIS2_PLACEMENT_3D('',#1596,#1246,#1247);
#1109=AXIS2_PLACEMENT_3D('',#1597,#1248,#1249);
#1110=AXIS2_PLACEMENT_3D('',#1603,#1253,#1254);
#1111=AXIS2_PLACEMENT_3D('',#1605,#1256,#1257);
#1112=AXIS2_PLACEMENT_3D('',#1612,#1258,#1259);
#1113=AXIS2_PLACEMENT_3D('',#1613,#1260,#1261);
#1114=AXIS2_PLACEMENT_3D('',#1614,#1262,#1263);
#1115=AXIS2_PLACEMENT_3D('',#1618,#1266,#1267);
#1116=AXIS2_PLACEMENT_3D('',#1619,#1268,#1269);
#1117=AXIS2_PLACEMENT_3D('',#1620,#1270,#1271);
#1118=AXIS2_PLACEMENT_3D('',#1623,#1273,#1274);
#1119=AXIS2_PLACEMENT_3D('',#1625,#1276,#1277);
#1120=AXIS2_PLACEMENT_3D('',#1626,#1278,#1279);
#1121=AXIS2_PLACEMENT_3D('',#1627,#1280,#1281);
#1122=AXIS2_PLACEMENT_3D('',#1628,#1282,#1283);
#1123=AXIS2_PLACEMENT_3D('',#1629,#1284,#1285);
#1124=AXIS2_PLACEMENT_3D('',#1633,#1287,#1288);
#1125=AXIS2_PLACEMENT_3D('',#1637,#1290,#1291);
#1126=AXIS2_PLACEMENT_3D('',#1638,#1292,#1293);
#1127=AXIS2_PLACEMENT_3D('',#1639,#1294,#1295);
#1128=AXIS2_PLACEMENT_3D('',#1640,#1296,#1297);
#1129=AXIS2_PLACEMENT_3D('',#1641,#1298,#1299);
#1130=AXIS2_PLACEMENT_3D('',#1642,#1300,#1301);
#1131=AXIS2_PLACEMENT_3D('',#1643,#1302,#1303);
#1132=AXIS2_PLACEMENT_3D('',#1644,#1304,#1305);
#1133=AXIS2_PLACEMENT_3D('',#1648,#1307,#1308);
#1134=AXIS2_PLACEMENT_3D('',#1649,#1309,#1310);
#1135=AXIS2_PLACEMENT_3D('',#1650,#1311,#1312);
#1136=AXIS2_PLACEMENT_3D('',#1654,#1314,#1315);
#1137=AXIS2_PLACEMENT_3D('',#1657,#1318,#1319);
#1138=AXIS2_PLACEMENT_3D('',#1658,#1320,#1321);
#1139=AXIS2_PLACEMENT_3D('',#1659,#1322,#1323);
#1140=AXIS2_PLACEMENT_3D('',#1660,#1324,#1325);
#1141=AXIS2_PLACEMENT_3D('',#1661,#1326,#1327);
#1142=AXIS2_PLACEMENT_3D('',#1662,#1328,#1329);
#1143=AXIS2_PLACEMENT_3D('',#1663,#1330,#1331);
#1144=AXIS2_PLACEMENT_3D('',#1664,#1332,#1333);
#1145=AXIS2_PLACEMENT_3D('',#1669,#1335,#1336);
#1146=AXIS2_PLACEMENT_3D('',#1672,#1338,#1339);
#1147=AXIS2_PLACEMENT_3D('',#1674,#1341,#1342);
#1148=AXIS2_PLACEMENT_3D('',#1676,#1344,#1345);
#1149=AXIS2_PLACEMENT_3D('',#1677,#1346,#1347);
#1150=AXIS2_PLACEMENT_3D('',#1678,#1348,#1349);
#1151=AXIS2_PLACEMENT_3D('',#1679,#1350,#1351);
#1152=AXIS2_PLACEMENT_3D('',#1680,#1352,#1353);
#1153=AXIS2_PLACEMENT_3D('',#1681,#1354,#1355);
#1154=AXIS2_PLACEMENT_3D('',#1682,#1356,#1357);
#1155=AXIS2_PLACEMENT_3D('',#1683,#1358,#1359);
#1156=AXIS2_PLACEMENT_3D('',#1688,#1361,#1362);
#1157=AXIS2_PLACEMENT_3D('',#1691,#1364,#1365);
#1158=AXIS2_PLACEMENT_3D('',#1693,#1367,#1368);
#1159=AXIS2_PLACEMENT_3D('',#1695,#1370,#1371);
#1160=AXIS2_PLACEMENT_3D('',#1696,#1372,#1373);
#1161=AXIS2_PLACEMENT_3D('',#1697,#1374,#1375);
#1162=AXIS2_PLACEMENT_3D('',#1698,#1376,#1377);
#1163=AXIS2_PLACEMENT_3D('',#1699,#1378,#1379);
#1164=AXIS2_PLACEMENT_3D('',#1700,#1380,#1381);
#1165=AXIS2_PLACEMENT_3D('',#1701,#1382,#1383);
#1166=AXIS2_PLACEMENT_3D('',#1710,#1388,#1389);
#1167=AXIS2_PLACEMENT_3D('',#1716,#1393,#1394);
#1168=AXIS2_PLACEMENT_3D('',#1722,#1398,#1399);
#1169=AXIS2_PLACEMENT_3D('',#1725,#1402,#1403);
#1170=AXIS2_PLACEMENT_3D('',#1726,#1404,#1405);
#1171=AXIS2_PLACEMENT_3D('',#1727,#1406,#1407);
#1172=AXIS2_PLACEMENT_3D('',#1730,#1408,#1409);
#1173=AXIS2_PLACEMENT_3D('',#1731,#1410,#1411);
#1174=AXIS2_PLACEMENT_3D('',#1732,#1412,#1413);
#1175=AXIS2_PLACEMENT_3D('',#1737,#1415,#1416);
#1176=AXIS2_PLACEMENT_3D('',#1741,#1418,#1419);
#1177=AXIS2_PLACEMENT_3D('',#1744,#1421,#1422);
#1178=AXIS2_PLACEMENT_3D('',#1745,#1423,#1424);
#1179=AXIS2_PLACEMENT_3D('',#1746,#1425,#1426);
#1180=AXIS2_PLACEMENT_3D('',#1747,#1427,#1428);
#1181=AXIS2_PLACEMENT_3D('',#1748,#1429,#1430);
#1182=AXIS2_PLACEMENT_3D('',#1751,#1433,#1434);
#1183=AXIS2_PLACEMENT_3D('',#1752,#1435,#1436);
#1184=AXIS2_PLACEMENT_3D('',#1753,#1437,#1438);
#1185=AXIS2_PLACEMENT_3D('',#1758,#1440,#1441);
#1186=AXIS2_PLACEMENT_3D('',#1761,#1443,#1444);
#1187=AXIS2_PLACEMENT_3D('',#1762,#1445,#1446);
#1188=AXIS2_PLACEMENT_3D('',#1763,#1447,#1448);
#1189=AXIS2_PLACEMENT_3D('',#1764,#1449,#1450);
#1190=AXIS2_PLACEMENT_3D('',#1772,#1451,#1452);
#1191=AXIS2_PLACEMENT_3D('',#1776,#1455,#1456);
#1192=AXIS2_PLACEMENT_3D('',#1782,#1460,#1461);
#1193=AXIS2_PLACEMENT_3D('',#1789,#1462,#1463);
#1194=AXIS2_PLACEMENT_3D('',#1790,#1464,#1465);
#1195=AXIS2_PLACEMENT_3D('',#1794,#1468,#1469);
#1196=AXIS2_PLACEMENT_3D('',#1798,#1472,#1473);
#1197=AXIS2_PLACEMENT_3D('',#1799,#1474,#1475);
#1198=AXIS2_PLACEMENT_3D('',#1801,#1477,#1478);
#1199=AXIS2_PLACEMENT_3D('',#1802,#1479,#1480);
#1200=AXIS2_PLACEMENT_3D('',#1803,#1481,#1482);
#1201=AXIS2_PLACEMENT_3D('',#1804,#1483,#1484);
#1202=AXIS2_PLACEMENT_3D('',#1809,#1487,#1488);
#1203=AXIS2_PLACEMENT_3D('',#1810,#1489,#1490);
#1204=AXIS2_PLACEMENT_3D('',#1811,#1491,#1492);
#1205=AXIS2_PLACEMENT_3D('',#1812,#1493,#1494);
#1206=AXIS2_PLACEMENT_3D('',#1815,#1496,#1497);
#1207=AXIS2_PLACEMENT_3D('',#1818,#1499,#1500);
#1208=AXIS2_PLACEMENT_3D('',#1819,#1501,#1502);
#1209=AXIS2_PLACEMENT_3D('',#1820,#1503,#1504);
#1210=AXIS2_PLACEMENT_3D('',#1831,#1507,#1508);
#1211=AXIS2_PLACEMENT_3D('',#1832,#1509,#1510);
#1212=AXIS2_PLACEMENT_3D('',#1838,#1514,#1515);
#1213=AXIS2_PLACEMENT_3D('',#1843,#1518,#1519);
#1214=AXIS2_PLACEMENT_3D('',#1844,#1520,#1521);
#1215=AXIS2_PLACEMENT_3D('',#1850,#1522,#1523);
#1216=AXIS2_PLACEMENT_3D('',#1851,#1524,#1525);
#1217=AXIS2_PLACEMENT_3D('',#1855,#1528,#1529);
#1218=AXIS2_PLACEMENT_3D('',#1857,#1531,#1532);
#1219=AXIS2_PLACEMENT_3D('',#1858,#1533,#1534);
#1220=AXIS2_PLACEMENT_3D('',#1859,#1535,#1536);
#1221=AXIS2_PLACEMENT_3D('',#1860,#1537,#1538);
#1222=AXIS2_PLACEMENT_3D('',#1861,#1539,#1540);
#1223=AXIS2_PLACEMENT_3D('',#1869,#1541,#1542);
#1224=AXIS2_PLACEMENT_3D('',#1873,#1544,#1545);
#1225=AXIS2_PLACEMENT_3D('',#1876,#1547,#1548);
#1226=AXIS2_PLACEMENT_3D('',#1882,#1552,#1553);
#1227=AXIS2_PLACEMENT_3D('',#1884,#1555,#1556);
#1228=AXIS2_PLACEMENT_3D('',#1885,#1557,#1558);
#1229=AXIS2_PLACEMENT_3D('',#1886,#1559,#1560);
#1230=AXIS2_PLACEMENT_3D('',#1890,#1562,#1563);
#1231=AXIS2_PLACEMENT_3D('',#1892,#1565,#1566);
#1232=AXIS2_PLACEMENT_3D('',#1898,#1567,#1568);
#1233=AXIS2_PLACEMENT_3D('',#1901,#1570,#1571);
#1234=AXIS2_PLACEMENT_3D('',#1902,#1572,#1573);
#1235=AXIS2_PLACEMENT_3D('',#1904,#1575,#1576);
#1236=AXIS2_PLACEMENT_3D('',#1905,#1577,#1578);
#1237=AXIS2_PLACEMENT_3D('',#1906,#1579,#1580);
#1238=DIRECTION('',(0.,0.,1.));
#1239=DIRECTION('',(1.,0.,0.));
#1240=DIRECTION('',(0.,0.,-1.));
#1241=DIRECTION('',(-6.12323399573677E-17,-1.,0.));
#1242=DIRECTION('',(0.,-0.029986509105671,0.999550303522367));
#1243=DIRECTION('',(0.,0.,1.));
#1244=DIRECTION('',(6.12323399573677E-17,1.,0.));
#1245=DIRECTION('',(0.,-0.029986509105671,-0.999550303522367));
#1246=DIRECTION('',(0.,0.,1.));
#1247=DIRECTION('',(6.12323399573677E-17,1.,0.));
#1248=DIRECTION('',(0.,0.,1.));
#1249=DIRECTION('',(6.12323399573677E-17,1.,0.));
#1250=DIRECTION('',(6.12323399573677E-17,1.,0.));
#1251=DIRECTION('',(0.,1.,0.));
#1252=DIRECTION('',(-1.,6.12323399573677E-17,0.));
#1253=DIRECTION('',(0.,0.,1.));
#1254=DIRECTION('',(6.12323399573677E-17,1.,0.));
#1255=DIRECTION('',(0.,1.,0.));
#1256=DIRECTION('',(0.,0.,-1.));
#1257=DIRECTION('',(-6.12323399573677E-17,-1.,0.));
#1258=DIRECTION('',(0.,0.,1.));
#1259=DIRECTION('',(6.12323399573677E-17,1.,0.));
#1260=DIRECTION('',(0.,0.,1.));
#1261=DIRECTION('',(6.12323399573677E-17,1.,0.));
#1262=DIRECTION('',(0.,0.,1.));
#1263=DIRECTION('',(6.12323399573677E-17,1.,0.));
#1264=DIRECTION('',(6.12323399573677E-17,1.,0.));
#1265=DIRECTION('',(-1.,6.12323399573677E-17,0.));
#1266=DIRECTION('',(0.,0.,1.));
#1267=DIRECTION('',(6.12323399573677E-17,1.,0.));
#1268=DIRECTION('',(6.12323399573677E-17,1.,0.));
#1269=DIRECTION('',(0.,0.,-1.));
#1270=DIRECTION('',(6.12323399573677E-17,1.,0.));
#1271=DIRECTION('',(0.,0.,-1.));
#1272=DIRECTION('',(6.12323399573677E-17,1.,0.));
#1273=DIRECTION('',(6.12323399573677E-17,1.,0.));
#1274=DIRECTION('',(-1.,6.12323399573677E-17,0.));
#1275=DIRECTION('',(0.,0.,-1.));
#1276=DIRECTION('',(6.12323399573677E-17,1.,0.));
#1277=DIRECTION('',(0.,0.,-1.));
#1278=DIRECTION('',(6.12323399573677E-17,1.,0.));
#1279=DIRECTION('',(0.,0.,-1.));
#1280=DIRECTION('',(6.12323399573677E-17,1.,0.));
#1281=DIRECTION('',(-1.,6.12323399573677E-17,0.));
#1282=DIRECTION('',(0.,0.,1.));
#1283=DIRECTION('',(1.,0.,0.));
#1284=DIRECTION('',(-6.12323399573677E-17,-1.,0.));
#1285=DIRECTION('',(0.,0.,1.));
#1286=DIRECTION('',(-6.12323399573677E-17,-1.,0.));
#1287=DIRECTION('',(-6.12323399573677E-17,-1.,0.));
#1288=DIRECTION('',(0.,0.,1.));
#1289=DIRECTION('',(-6.12323399573677E-17,-1.,0.));
#1290=DIRECTION('',(6.12323399573677E-17,1.,0.));
#1291=DIRECTION('',(0.,0.,-1.));
#1292=DIRECTION('',(-6.12323399573677E-17,-1.,0.));
#1293=DIRECTION('',(-1.,6.12323399573677E-17,0.));
#1294=DIRECTION('',(-6.12323399573677E-17,-1.,0.));
#1295=DIRECTION('',(0.,0.,1.));
#1296=DIRECTION('',(-6.12323399573677E-17,-1.,0.));
#1297=DIRECTION('',(0.,0.,1.));
#1298=DIRECTION('',(6.12323399573677E-17,1.,0.));
#1299=DIRECTION('',(0.,0.,-1.));
#1300=DIRECTION('',(6.12323399573677E-17,1.,0.));
#1301=DIRECTION('',(-1.,6.12323399573677E-17,0.));
#1302=DIRECTION('',(0.,0.,1.));
#1303=DIRECTION('',(1.,0.,0.));
#1304=DIRECTION('',(0.,0.,1.));
#1305=DIRECTION('',(6.12323399573677E-17,1.,0.));
#1306=DIRECTION('',(0.,1.,0.));
#1307=DIRECTION('',(0.,0.,1.));
#1308=DIRECTION('',(6.12323399573677E-17,1.,0.));
#1309=DIRECTION('',(0.,0.,1.));
#1310=DIRECTION('',(6.12323399573677E-17,1.,0.));
#1311=DIRECTION('',(0.,0.,1.));
#1312=DIRECTION('',(6.12323399573677E-17,1.,0.));
#1313=DIRECTION('',(0.,1.,0.));
#1314=DIRECTION('',(0.,0.,-1.));
#1315=DIRECTION('',(-6.12323399573677E-17,-1.,0.));
#1316=DIRECTION('',(0.,0.,-1.));
#1317=DIRECTION('',(0.,0.,-1.));
#1318=DIRECTION('',(0.,0.,-1.));
#1319=DIRECTION('',(-6.12323399573677E-17,-1.,0.));
#1320=DIRECTION('',(0.,0.,1.));
#1321=DIRECTION('',(6.12323399573677E-17,1.,0.));
#1322=DIRECTION('',(0.,0.,1.));
#1323=DIRECTION('',(6.12323399573677E-17,1.,0.));
#1324=DIRECTION('',(0.,0.,1.));
#1325=DIRECTION('',(6.12323399573677E-17,1.,0.));
#1326=DIRECTION('',(0.,0.,1.));
#1327=DIRECTION('',(6.12323399573677E-17,1.,0.));
#1328=DIRECTION('',(0.,0.,1.));
#1329=DIRECTION('',(1.,0.,0.));
#1330=DIRECTION('',(6.12323399573677E-17,1.,0.));
#1331=DIRECTION('',(0.,0.,-1.));
#1332=DIRECTION('',(6.12323399573677E-17,1.,0.));
#1333=DIRECTION('',(0.,0.,-1.));
#1334=DIRECTION('',(6.12323399573677E-17,1.,0.));
#1335=DIRECTION('',(6.12323399573677E-17,1.,0.));
#1336=DIRECTION('',(0.,0.,-1.));
#1337=DIRECTION('',(6.12323399573677E-17,1.,0.));
#1338=DIRECTION('',(6.12323399573677E-17,1.,0.));
#1339=DIRECTION('',(-1.,6.12323399573677E-17,0.));
#1340=DIRECTION('',(0.,0.,-1.));
#1341=DIRECTION('',(6.12323399573677E-17,1.,0.));
#1342=DIRECTION('',(-1.,6.12323399573677E-17,0.));
#1343=DIRECTION('',(0.,0.,-1.));
#1344=DIRECTION('',(6.12323399573677E-17,1.,0.));
#1345=DIRECTION('',(0.,0.,-1.));
#1346=DIRECTION('',(6.12323399573677E-17,1.,0.));
#1347=DIRECTION('',(0.,0.,-1.));
#1348=DIRECTION('',(6.12323399573677E-17,1.,0.));
#1349=DIRECTION('',(0.,0.,-1.));
#1350=DIRECTION('',(6.12323399573677E-17,1.,0.));
#1351=DIRECTION('',(-1.,6.12323399573677E-17,0.));
#1352=DIRECTION('',(6.12323399573677E-17,1.,0.));
#1353=DIRECTION('',(-1.,6.12323399573677E-17,0.));
#1354=DIRECTION('',(0.,0.,1.));
#1355=DIRECTION('',(1.,0.,0.));
#1356=DIRECTION('',(-6.12323399573677E-17,-1.,0.));
#1357=DIRECTION('',(0.,0.,-1.));
#1358=DIRECTION('',(6.12323399573677E-17,1.,0.));
#1359=DIRECTION('',(0.,0.,-1.));
#1360=DIRECTION('',(-6.12323399573677E-17,-1.,0.));
#1361=DIRECTION('',(6.12323399573677E-17,1.,0.));
#1362=DIRECTION('',(0.,0.,-1.));
#1363=DIRECTION('',(-6.12323399573677E-17,-1.,0.));
#1364=DIRECTION('',(-6.12323399573677E-17,-1.,0.));
#1365=DIRECTION('',(-1.,6.12323399573677E-17,0.));
#1366=DIRECTION('',(0.,0.,1.));
#1367=DIRECTION('',(-6.12323399573677E-17,-1.,0.));
#1368=DIRECTION('',(-1.,6.12323399573677E-17,0.));
#1369=DIRECTION('',(0.,0.,1.));
#1370=DIRECTION('',(-6.12323399573677E-17,-1.,0.));
#1371=DIRECTION('',(0.,0.,-1.));
#1372=DIRECTION('',(6.12323399573677E-17,1.,0.));
#1373=DIRECTION('',(0.,0.,-1.));
#1374=DIRECTION('',(6.12323399573677E-17,1.,0.));
#1375=DIRECTION('',(0.,0.,-1.));
#1376=DIRECTION('',(-6.12323399573677E-17,-1.,0.));
#1377=DIRECTION('',(-1.,6.12323399573677E-17,0.));
#1378=DIRECTION('',(-6.12323399573677E-17,-1.,0.));
#1379=DIRECTION('',(-1.,6.12323399573677E-17,0.));
#1380=DIRECTION('',(0.,0.,1.));
#1381=DIRECTION('',(1.,0.,0.));
#1382=DIRECTION('',(-1.77635683940025E-16,-1.,0.));
#1383=DIRECTION('',(1.,-1.77635683940025E-16,0.));
#1384=DIRECTION('',(-1.,1.77635683940025E-16,0.));
#1385=DIRECTION('',(0.,0.,-1.));
#1386=DIRECTION('',(-1.,1.77635683940025E-16,0.));
#1387=DIRECTION('',(0.,0.,-1.));
#1388=DIRECTION('',(-1.,2.66453525910038E-16,0.));
#1389=DIRECTION('',(-2.66453525910038E-16,-1.,0.));
#1390=DIRECTION('',(2.66453525910038E-16,1.,0.));
#1391=DIRECTION('',(0.,0.,-1.));
#1392=DIRECTION('',(2.66453525910038E-16,1.,0.));
#1393=DIRECTION('',(-1.77635683940025E-16,-1.,0.));
#1394=DIRECTION('',(1.,-1.77635683940025E-16,0.));
#1395=DIRECTION('',(-1.,1.77635683940025E-16,0.));
#1396=DIRECTION('',(0.,0.,-1.));
#1397=DIRECTION('',(-1.,1.77635683940025E-16,0.));
#1398=DIRECTION('',(-1.,8.88178419700125E-17,0.));
#1399=DIRECTION('',(-8.88178419700125E-17,-1.,0.));
#1400=DIRECTION('',(8.88178419700125E-17,1.,0.));
#1401=DIRECTION('',(8.88178419700125E-17,1.,0.));
#1402=DIRECTION('',(0.,0.,1.));
#1403=DIRECTION('',(1.,0.,0.));
#1404=DIRECTION('',(0.,0.,1.));
#1405=DIRECTION('',(1.,0.,0.));
#1406=DIRECTION('',(0.,0.,1.));
#1407=DIRECTION('',(6.12323399573677E-17,1.,0.));
#1408=DIRECTION('',(0.,0.,1.));
#1409=DIRECTION('',(6.12323399573677E-17,1.,0.));
#1410=DIRECTION('',(0.,0.,1.));
#1411=DIRECTION('',(6.12323399573677E-17,1.,0.));
#1412=DIRECTION('',(0.,0.,1.));
#1413=DIRECTION('',(6.12323399573677E-17,1.,0.));
#1414=DIRECTION('',(0.,1.,0.));
#1415=DIRECTION('',(0.,0.,1.));
#1416=DIRECTION('',(6.12323399573677E-17,1.,0.));
#1417=DIRECTION('',(0.,1.,0.));
#1418=DIRECTION('',(0.,0.,-1.));
#1419=DIRECTION('',(-6.12323399573677E-17,-1.,0.));
#1420=DIRECTION('',(0.,1.,0.));
#1421=DIRECTION('',(0.,0.,1.));
#1422=DIRECTION('',(6.12323399573677E-17,1.,0.));
#1423=DIRECTION('',(0.,0.,1.));
#1424=DIRECTION('',(6.12323399573677E-17,1.,0.));
#1425=DIRECTION('',(0.,0.,-1.));
#1426=DIRECTION('',(-6.12323399573677E-17,-1.,0.));
#1427=DIRECTION('',(0.,0.,1.));
#1428=DIRECTION('',(6.12323399573677E-17,1.,0.));
#1429=DIRECTION('',(0.,0.,-1.));
#1430=DIRECTION('',(-6.12323399573677E-17,-1.,0.));
#1431=DIRECTION('',(0.,0.,-1.));
#1432=DIRECTION('',(0.,0.,-1.));
#1433=DIRECTION('',(0.,0.,-1.));
#1434=DIRECTION('',(-6.12323399573677E-17,-1.,0.));
#1435=DIRECTION('',(6.12323399573677E-17,1.,0.));
#1436=DIRECTION('',(-1.,6.12323399573677E-17,0.));
#1437=DIRECTION('',(6.12323399573677E-17,1.,0.));
#1438=DIRECTION('',(0.,0.,-1.));
#1439=DIRECTION('',(0.,0.,-1.));
#1440=DIRECTION('',(6.12323399573677E-17,1.,0.));
#1441=DIRECTION('',(0.,0.,-1.));
#1442=DIRECTION('',(0.,0.,-1.));
#1443=DIRECTION('',(6.12323399573677E-17,1.,0.));
#1444=DIRECTION('',(-1.,6.12323399573677E-17,0.));
#1445=DIRECTION('',(6.12323399573677E-17,1.,0.));
#1446=DIRECTION('',(0.,0.,-1.));
#1447=DIRECTION('',(6.12323399573677E-17,1.,0.));
#1448=DIRECTION('',(0.,0.,-1.));
#1449=DIRECTION('',(0.,0.,-1.));
#1450=DIRECTION('',(-6.12323399573677E-17,-1.,0.));
#1451=DIRECTION('',(0.,0.,1.));
#1452=DIRECTION('',(6.12323399573677E-17,1.,0.));
#1453=DIRECTION('',(0.,-0.029986509105671,-0.999550303522367));
#1454=DIRECTION('',(0.,-0.029986509105671,0.999550303522367));
#1455=DIRECTION('',(0.,0.,1.));
#1456=DIRECTION('',(6.12323399573677E-17,1.,0.));
#1457=DIRECTION('',(6.12323399573677E-17,1.,0.));
#1458=DIRECTION('',(-1.,6.12323399573677E-17,0.));
#1459=DIRECTION('',(0.,1.,0.));
#1460=DIRECTION('',(0.,0.,-1.));
#1461=DIRECTION('',(-6.12323399573677E-17,-1.,0.));
#1462=DIRECTION('',(0.,0.,1.));
#1463=DIRECTION('',(6.12323399573677E-17,1.,0.));
#1464=DIRECTION('',(0.,0.,1.));
#1465=DIRECTION('',(6.12323399573677E-17,1.,0.));
#1466=DIRECTION('',(6.12323399573677E-17,1.,0.));
#1467=DIRECTION('',(-1.,6.12323399573677E-17,0.));
#1468=DIRECTION('',(6.12323399573677E-17,1.,0.));
#1469=DIRECTION('',(0.,0.,-1.));
#1470=DIRECTION('',(6.12323399573677E-17,1.,0.));
#1471=DIRECTION('',(6.12323399573677E-17,1.,0.));
#1472=DIRECTION('',(6.12323399573677E-17,1.,0.));
#1473=DIRECTION('',(0.,0.,-1.));
#1474=DIRECTION('',(6.12323399573677E-17,1.,0.));
#1475=DIRECTION('',(-1.,6.12323399573677E-17,0.));
#1476=DIRECTION('',(0.,0.,-1.));
#1477=DIRECTION('',(6.12323399573677E-17,1.,0.));
#1478=DIRECTION('',(0.,0.,-1.));
#1479=DIRECTION('',(6.12323399573677E-17,1.,0.));
#1480=DIRECTION('',(0.,0.,-1.));
#1481=DIRECTION('',(6.12323399573677E-17,1.,0.));
#1482=DIRECTION('',(-1.,6.12323399573677E-17,0.));
#1483=DIRECTION('',(-6.12323399573677E-17,-1.,0.));
#1484=DIRECTION('',(0.,0.,1.));
#1485=DIRECTION('',(-6.12323399573677E-17,-1.,0.));
#1486=DIRECTION('',(-6.12323399573677E-17,-1.,0.));
#1487=DIRECTION('',(-6.12323399573677E-17,-1.,0.));
#1488=DIRECTION('',(0.,0.,1.));
#1489=DIRECTION('',(-6.12323399573677E-17,-1.,0.));
#1490=DIRECTION('',(0.,0.,1.));
#1491=DIRECTION('',(-6.12323399573677E-17,-1.,0.));
#1492=DIRECTION('',(0.,0.,1.));
#1493=DIRECTION('',(-6.12323399573677E-17,-1.,0.));
#1494=DIRECTION('',(-1.,6.12323399573677E-17,0.));
#1495=DIRECTION('',(0.,0.,1.));
#1496=DIRECTION('',(6.12323399573677E-17,1.,0.));
#1497=DIRECTION('',(0.,0.,-1.));
#1498=DIRECTION('',(0.,0.,1.));
#1499=DIRECTION('',(-6.12323399573677E-17,-1.,0.));
#1500=DIRECTION('',(-1.,6.12323399573677E-17,0.));
#1501=DIRECTION('',(6.12323399573677E-17,1.,0.));
#1502=DIRECTION('',(0.,0.,-1.));
#1503=DIRECTION('',(0.,0.,-1.));
#1504=DIRECTION('',(6.12323399573677E-17,1.,0.));
#1505=DIRECTION('',(0.,-0.029986509105671,-0.999550303522367));
#1506=DIRECTION('',(0.,-0.029986509105671,0.999550303522367));
#1507=DIRECTION('',(0.,0.,-1.));
#1508=DIRECTION('',(-6.12323399573677E-17,-1.,0.));
#1509=DIRECTION('',(0.,0.,1.));
#1510=DIRECTION('',(-6.12323399573677E-17,-1.,0.));
#1511=DIRECTION('',(-6.12323399573677E-17,-1.,0.));
#1512=DIRECTION('',(0.,1.,0.));
#1513=DIRECTION('',(1.,-6.12323399573677E-17,0.));
#1514=DIRECTION('',(0.,0.,1.));
#1515=DIRECTION('',(-6.12323399573677E-17,-1.,0.));
#1516=DIRECTION('',(-6.12323399573677E-17,-1.,0.));
#1517=DIRECTION('',(1.,-6.12323399573677E-17,0.));
#1518=DIRECTION('',(0.,0.,-1.));
#1519=DIRECTION('',(-6.12323399573677E-17,-1.,0.));
#1520=DIRECTION('',(0.,0.,-1.));
#1521=DIRECTION('',(6.12323399573677E-17,1.,0.));
#1522=DIRECTION('',(-6.12323399573677E-17,-1.,0.));
#1523=DIRECTION('',(0.,0.,-1.));
#1524=DIRECTION('',(6.12323399573677E-17,1.,0.));
#1525=DIRECTION('',(0.,0.,-1.));
#1526=DIRECTION('',(-6.12323399573677E-17,-1.,0.));
#1527=DIRECTION('',(-6.12323399573677E-17,-1.,0.));
#1528=DIRECTION('',(-6.12323399573677E-17,-1.,0.));
#1529=DIRECTION('',(-1.,6.12323399573677E-17,0.));
#1530=DIRECTION('',(0.,0.,1.));
#1531=DIRECTION('',(-6.12323399573677E-17,-1.,0.));
#1532=DIRECTION('',(0.,0.,-1.));
#1533=DIRECTION('',(6.12323399573677E-17,1.,0.));
#1534=DIRECTION('',(0.,0.,-1.));
#1535=DIRECTION('',(-6.12323399573677E-17,-1.,0.));
#1536=DIRECTION('',(-1.,6.12323399573677E-17,0.));
#1537=DIRECTION('',(0.,0.,1.));
#1538=DIRECTION('',(1.,0.,0.));
#1539=DIRECTION('',(0.,0.,-1.));
#1540=DIRECTION('',(6.12323399573677E-17,1.,0.));
#1541=DIRECTION('',(0.,0.,-1.));
#1542=DIRECTION('',(-6.12323399573677E-17,-1.,0.));
#1543=DIRECTION('',(0.,-0.029986509105671,0.999550303522367));
#1544=DIRECTION('',(0.,0.,-1.));
#1545=DIRECTION('',(-6.12323399573677E-17,-1.,0.));
#1546=DIRECTION('',(0.,-0.029986509105671,-0.999550303522367));
#1547=DIRECTION('',(0.,0.,1.));
#1548=DIRECTION('',(-6.12323399573677E-17,-1.,0.));
#1549=DIRECTION('',(-6.12323399573677E-17,-1.,0.));
#1550=DIRECTION('',(1.,-6.12323399573677E-17,0.));
#1551=DIRECTION('',(0.,1.,0.));
#1552=DIRECTION('',(0.,0.,1.));
#1553=DIRECTION('',(-6.12323399573677E-17,-1.,0.));
#1554=DIRECTION('',(0.,1.,0.));
#1555=DIRECTION('',(0.,0.,1.));
#1556=DIRECTION('',(-6.12323399573677E-17,-1.,0.));
#1557=DIRECTION('',(0.,0.,-1.));
#1558=DIRECTION('',(-6.12323399573677E-17,-1.,0.));
#1559=DIRECTION('',(0.,0.,1.));
#1560=DIRECTION('',(-6.12323399573677E-17,-1.,0.));
#1561=DIRECTION('',(-6.12323399573677E-17,-1.,0.));
#1562=DIRECTION('',(0.,0.,-1.));
#1563=DIRECTION('',(-6.12323399573677E-17,-1.,0.));
#1564=DIRECTION('',(1.,-6.12323399573677E-17,0.));
#1565=DIRECTION('',(0.,0.,-1.));
#1566=DIRECTION('',(6.12323399573677E-17,1.,0.));
#1567=DIRECTION('',(-6.12323399573677E-17,-1.,0.));
#1568=DIRECTION('',(0.,0.,-1.));
#1569=DIRECTION('',(-6.12323399573677E-17,-1.,0.));
#1570=DIRECTION('',(6.12323399573677E-17,1.,0.));
#1571=DIRECTION('',(0.,0.,-1.));
#1572=DIRECTION('',(-6.12323399573677E-17,-1.,0.));
#1573=DIRECTION('',(-1.,6.12323399573677E-17,0.));
#1574=DIRECTION('',(0.,0.,1.));
#1575=DIRECTION('',(-6.12323399573677E-17,-1.,0.));
#1576=DIRECTION('',(0.,0.,-1.));
#1577=DIRECTION('',(6.12323399573677E-17,1.,0.));
#1578=DIRECTION('',(0.,0.,-1.));
#1579=DIRECTION('',(-6.12323399573677E-17,-1.,0.));
#1580=DIRECTION('',(-1.,6.12323399573677E-17,0.));
#1581=CARTESIAN_POINT('',(0.,0.,0.));
#1582=CARTESIAN_POINT('',(-9.06238631369041E-17,-1.18,20.));
#1583=CARTESIAN_POINT('',(-5.31955076649423E-16,-1.02985,24.995));
#1584=CARTESIAN_POINT('',(-0.00132122232977327,-1.02985,24.995));
#1585=CARTESIAN_POINT('',(-0.00390909678335979,-1.02992422283095,24.9960878702859));
#1586=CARTESIAN_POINT('',(-0.00499999999999701,-1.03004371660407,24.9986794046001));
#1587=CARTESIAN_POINT('',(-0.00499999999999701,-1.03008335649435,25.));
#1588=CARTESIAN_POINT('',(1.80727251384162E-17,-1.02985000000001,24.995));
#1589=CARTESIAN_POINT('',(-0.00499999999999701,-1.03008335649435,25.));
#1590=CARTESIAN_POINT('',(0.,-1.18,30.));
#1591=CARTESIAN_POINT('',(0.,-0.88,20.));
#1592=CARTESIAN_POINT('',(-9.06238631369041E-17,-1.18,20.));
#1593=CARTESIAN_POINT('',(0.,-1.48,20.));
#1594=CARTESIAN_POINT('',(0.,-1.18,30.));
#1595=CARTESIAN_POINT('',(0.,-1.33,25.));
#1596=CARTESIAN_POINT('',(-8.1439012143299E-17,-1.18,25.));
#1597=CARTESIAN_POINT('',(-7.22541611496938E-17,-1.18,25.));
#1598=CARTESIAN_POINT('',(-0.00499999999999702,-1.325,25.));
#1599=CARTESIAN_POINT('',(-0.00499999999999702,-1.325,25.));
#1600=CARTESIAN_POINT('',(0.,-1.18,25.));
#1601=CARTESIAN_POINT('',(0.,-1.325,25.));
#1602=CARTESIAN_POINT('',(-8.11328504435122E-17,-1.325,25.));
#1603=CARTESIAN_POINT('',(0.,0.,20.));
#1604=CARTESIAN_POINT('',(0.,0.,20.));
#1605=CARTESIAN_POINT('',(-9.06238631369041E-17,-1.18,20.));
#1606=CARTESIAN_POINT('',(0.005000000000003,-1.03008335649435,25.));
#1607=CARTESIAN_POINT('',(0.005000000000003,-1.03004371582392,24.9986793786095));
#1608=CARTESIAN_POINT('',(0.003914085156509,-1.02992449114976,24.9960928852518));
#1609=CARTESIAN_POINT('',(0.00132124629699527,-1.02985,24.995));
#1610=CARTESIAN_POINT('',(5.73239211832625E-16,-1.02985,24.995));
#1611=CARTESIAN_POINT('',(0.005000000000003,-1.03008335649435,25.));
#1612=CARTESIAN_POINT('',(-8.1439012143299E-17,-1.18,25.));
#1613=CARTESIAN_POINT('',(-9.06238631369041E-17,-1.18,20.));
#1614=CARTESIAN_POINT('',(-7.22541611496938E-17,-1.18,25.));
#1615=CARTESIAN_POINT('',(0.00500000000000298,-1.325,25.));
#1616=CARTESIAN_POINT('',(0.00500000000000298,-1.325,25.));
#1617=CARTESIAN_POINT('',(-8.11328504435122E-17,-1.325,25.));
#1618=CARTESIAN_POINT('',(0.,0.,20.));
#1619=CARTESIAN_POINT('',(2.9771846377036E-15,-1.325,25.));
#1620=CARTESIAN_POINT('',(2.9771846377036E-15,-1.325,25.));
#1621=CARTESIAN_POINT('',(0.,-1.325,24.995));
#1622=CARTESIAN_POINT('',(0.,-1.325,24.995));
#1623=CARTESIAN_POINT('',(2.9771846377036E-15,-1.325,25.));
#1624=CARTESIAN_POINT('',(0.,-1.325,25.));
#1625=CARTESIAN_POINT('',(2.9771846377036E-15,-1.325,25.));
#1626=CARTESIAN_POINT('',(2.9771846377036E-15,-1.325,25.));
#1627=CARTESIAN_POINT('',(2.9771846377036E-15,-1.325,25.));
#1628=CARTESIAN_POINT('',(0.,0.,0.));
#1629=CARTESIAN_POINT('',(3.13945046105531E-15,1.325002,25.));
#1630=CARTESIAN_POINT('',(0.,1.325002,25.0025));
#1631=CARTESIAN_POINT('',(3.09658770062047E-15,0.625,25.0025));
#1632=CARTESIAN_POINT('',(-8.11329729066058E-17,-0.625,25.0025));
#1633=CARTESIAN_POINT('',(3.09658770062047E-15,0.625,25.));
#1634=CARTESIAN_POINT('',(-8.11329729065664E-17,0.625,24.9975));
#1635=CARTESIAN_POINT('',(0.,1.325002,24.9975));
#1636=CARTESIAN_POINT('',(3.02004727567376E-15,-0.625,24.9975));
#1637=CARTESIAN_POINT('',(3.02004727567376E-15,-0.625,25.));
#1638=CARTESIAN_POINT('',(3.09658770062047E-15,0.625,25.));
#1639=CARTESIAN_POINT('',(3.09658770062047E-15,0.625,25.));
#1640=CARTESIAN_POINT('',(3.13945046105531E-15,1.325002,25.));
#1641=CARTESIAN_POINT('',(3.02004727567376E-15,-0.625,25.));
#1642=CARTESIAN_POINT('',(3.02004727567376E-15,-0.625,25.));
#1643=CARTESIAN_POINT('',(0.,0.,0.));
#1644=CARTESIAN_POINT('',(0.,0.,0.));
#1645=CARTESIAN_POINT('',(0.,0.,0.));
#1646=CARTESIAN_POINT('',(0.,-1.5,0.));
#1647=CARTESIAN_POINT('',(0.,1.5,0.));
#1648=CARTESIAN_POINT('',(-9.18485099360515E-17,5.62409918498197E-33,0.));
#1649=CARTESIAN_POINT('',(0.,0.,20.));
#1650=CARTESIAN_POINT('',(-9.18485099360515E-17,5.62409918498197E-33,20.));
#1651=CARTESIAN_POINT('',(0.,1.5,20.));
#1652=CARTESIAN_POINT('',(0.,-1.5,20.));
#1653=CARTESIAN_POINT('',(0.,0.,20.));
#1654=CARTESIAN_POINT('',(-9.18485099360515E-17,5.62409918498197E-33,20.));
#1655=CARTESIAN_POINT('',(0.,-1.5,20.));
#1656=CARTESIAN_POINT('',(0.,1.5,20.));
#1657=CARTESIAN_POINT('',(-9.18485099360515E-17,5.62409918498197E-33,20.));
#1658=CARTESIAN_POINT('',(-9.18485099360515E-17,5.62409918498197E-33,20.));
#1659=CARTESIAN_POINT('',(-9.18485099360515E-17,5.62409918498197E-33,0.));
#1660=CARTESIAN_POINT('',(0.,0.,20.));
#1661=CARTESIAN_POINT('',(0.,0.,0.));
#1662=CARTESIAN_POINT('',(0.,0.,0.));
#1663=CARTESIAN_POINT('',(2.9771846377036E-15,-1.325,25.));
#1664=CARTESIAN_POINT('',(3.02004727567376E-15,-0.625,25.));
#1665=CARTESIAN_POINT('',(0.,-0.625,24.995));
#1666=CARTESIAN_POINT('',(0.,-0.625,25.005));
#1667=CARTESIAN_POINT('',(0.,-1.325,24.995));
#1668=CARTESIAN_POINT('',(0.,-1.325,24.995));
#1669=CARTESIAN_POINT('',(2.9771846377036E-15,-1.325,25.));
#1670=CARTESIAN_POINT('',(0.,-1.325,25.005));
#1671=CARTESIAN_POINT('',(0.,-1.325,25.005));
#1672=CARTESIAN_POINT('',(3.02004727567376E-15,-0.625,25.));
#1673=CARTESIAN_POINT('',(0.,-0.625,25.));
#1674=CARTESIAN_POINT('',(2.9771846377036E-15,-1.325,25.));
#1675=CARTESIAN_POINT('',(0.,-1.325,25.));
#1676=CARTESIAN_POINT('',(2.9771846377036E-15,-1.325,25.));
#1677=CARTESIAN_POINT('',(3.02004727567376E-15,-0.625,25.));
#1678=CARTESIAN_POINT('',(2.9771846377036E-15,-1.325,25.));
#1679=CARTESIAN_POINT('',(2.9771846377036E-15,-1.325,25.));
#1680=CARTESIAN_POINT('',(3.02004727567376E-15,-0.625,25.));
#1681=CARTESIAN_POINT('',(0.,0.,0.));
#1682=CARTESIAN_POINT('',(3.13945033859063E-15,1.325,25.));
#1683=CARTESIAN_POINT('',(3.09658770062047E-15,0.625,25.));
#1684=CARTESIAN_POINT('',(0.,0.625,24.995));
#1685=CARTESIAN_POINT('',(0.,0.625,25.005));
#1686=CARTESIAN_POINT('',(0.,1.325,25.005));
#1687=CARTESIAN_POINT('',(0.,1.325,25.005));
#1688=CARTESIAN_POINT('',(3.13945033859063E-15,1.325,25.));
#1689=CARTESIAN_POINT('',(0.,1.325,24.995));
#1690=CARTESIAN_POINT('',(0.,1.325,24.995));
#1691=CARTESIAN_POINT('',(3.09658770062047E-15,0.625,25.));
#1692=CARTESIAN_POINT('',(0.,0.625,25.));
#1693=CARTESIAN_POINT('',(3.13945033859063E-15,1.325,25.));
#1694=CARTESIAN_POINT('',(0.,1.325,25.));
#1695=CARTESIAN_POINT('',(3.13945033859063E-15,1.325,25.));
#1696=CARTESIAN_POINT('',(3.09658770062047E-15,0.625,25.));
#1697=CARTESIAN_POINT('',(3.13945033859063E-15,1.325,25.));
#1698=CARTESIAN_POINT('',(3.13945033859063E-15,1.325,25.));
#1699=CARTESIAN_POINT('',(3.09658770062047E-15,0.625,25.));
#1700=CARTESIAN_POINT('',(0.,0.,0.));
#1701=CARTESIAN_POINT('',(-8.88178419700125E-16,-5.,30.));
#1702=CARTESIAN_POINT('',(-8.88178419700125E-16,-5.,0.));
#1703=CARTESIAN_POINT('',(5.,-5.,0.));
#1704=CARTESIAN_POINT('',(-5.,-5.,0.));
#1705=CARTESIAN_POINT('',(5.,-5.,30.));
#1706=CARTESIAN_POINT('',(5.,-5.,30.));
#1707=CARTESIAN_POINT('',(-8.88178419700125E-16,-5.,30.));
#1708=CARTESIAN_POINT('',(-5.,-5.,30.));
#1709=CARTESIAN_POINT('',(-5.,-5.,30.));
#1710=CARTESIAN_POINT('',(5.,-8.88178419700125E-16,30.));
#1711=CARTESIAN_POINT('',(5.,-8.88178419700125E-16,0.));
#1712=CARTESIAN_POINT('',(5.,5.,0.));
#1713=CARTESIAN_POINT('',(5.,5.,30.));
#1714=CARTESIAN_POINT('',(5.,5.,30.));
#1715=CARTESIAN_POINT('',(5.,-8.88178419700125E-16,30.));
#1716=CARTESIAN_POINT('',(1.77635683940025E-15,5.,30.));
#1717=CARTESIAN_POINT('',(1.77635683940025E-15,5.,0.));
#1718=CARTESIAN_POINT('',(-5.,5.,0.));
#1719=CARTESIAN_POINT('',(-5.,5.,30.));
#1720=CARTESIAN_POINT('',(-5.,5.,30.));
#1721=CARTESIAN_POINT('',(1.77635683940025E-15,5.,30.));
#1722=CARTESIAN_POINT('',(-5.,8.88178419700125E-16,30.));
#1723=CARTESIAN_POINT('',(-5.,8.88178419700125E-16,0.));
#1724=CARTESIAN_POINT('',(-5.,8.88178419700125E-16,30.));
#1725=CARTESIAN_POINT('',(0.,0.,30.));
#1726=CARTESIAN_POINT('',(0.,0.,0.));
#1727=CARTESIAN_POINT('',(-9.18485099360515E-17,5.62409918498197E-33,0.));
#1728=CARTESIAN_POINT('',(0.,1.5,0.));
#1729=CARTESIAN_POINT('',(0.,-1.5,0.));
#1730=CARTESIAN_POINT('',(-9.18485099360515E-17,5.62409918498197E-33,0.));
#1731=CARTESIAN_POINT('',(0.,0.,20.));
#1732=CARTESIAN_POINT('',(-9.06238631369041E-17,-1.18,20.));
#1733=CARTESIAN_POINT('',(0.,-0.88,20.));
#1734=CARTESIAN_POINT('',(0.,-1.48,20.));
#1735=CARTESIAN_POINT('',(0.,0.,20.));
#1736=CARTESIAN_POINT('',(0.,-1.5,20.));
#1737=CARTESIAN_POINT('',(-9.18485099360515E-17,5.62409918498197E-33,20.));
#1738=CARTESIAN_POINT('',(0.,1.5,20.));
#1739=CARTESIAN_POINT('',(0.,0.,20.));
#1740=CARTESIAN_POINT('',(0.,1.48,20.));
#1741=CARTESIAN_POINT('',(5.38844591624836E-17,1.18,20.));
#1742=CARTESIAN_POINT('',(0.,0.88,20.));
#1743=CARTESIAN_POINT('',(0.,0.,20.));
#1744=CARTESIAN_POINT('',(0.,0.,20.));
#1745=CARTESIAN_POINT('',(-9.06238631369041E-17,-1.18,20.));
#1746=CARTESIAN_POINT('',(5.38844591624836E-17,1.18,20.));
#1747=CARTESIAN_POINT('',(-9.18485099360515E-17,5.62409918498197E-33,20.));
#1748=CARTESIAN_POINT('',(-9.18485099360515E-17,5.62409918498197E-33,20.));
#1749=CARTESIAN_POINT('',(0.,-1.5,20.));
#1750=CARTESIAN_POINT('',(0.,1.5,20.));
#1751=CARTESIAN_POINT('',(-9.18485099360515E-17,5.62409918498197E-33,20.));
#1752=CARTESIAN_POINT('',(3.02004727567376E-15,-0.625,25.));
#1753=CARTESIAN_POINT('',(3.02004727567376E-15,-0.625,25.));
#1754=CARTESIAN_POINT('',(3.02004727567376E-15,-0.625,24.9975));
#1755=CARTESIAN_POINT('',(0.,-0.625,25.0025));
#1756=CARTESIAN_POINT('',(0.,-0.625,25.));
#1757=CARTESIAN_POINT('',(0.,-0.625,25.005));
#1758=CARTESIAN_POINT('',(3.02004727567376E-15,-0.625,25.));
#1759=CARTESIAN_POINT('',(0.,-0.625,24.995));
#1760=CARTESIAN_POINT('',(0.,-0.625,25.));
#1761=CARTESIAN_POINT('',(3.02004727567376E-15,-0.625,25.));
#1762=CARTESIAN_POINT('',(3.02004727567376E-15,-0.625,25.));
#1763=CARTESIAN_POINT('',(3.02004727567376E-15,-0.625,25.));
#1764=CARTESIAN_POINT('',(-9.06238631369041E-17,-1.18,20.));
#1765=CARTESIAN_POINT('',(-1.6526712215258E-15,-1.02985,24.995));
#1766=CARTESIAN_POINT('',(-0.00132122232977415,-1.02985,24.995));
#1767=CARTESIAN_POINT('',(-0.00390909678335943,-1.02992422283095,24.996087870286));
#1768=CARTESIAN_POINT('',(-0.00499999999999701,-1.03004371660407,24.9986794046001));
#1769=CARTESIAN_POINT('',(-0.00499999999999701,-1.03008335649435,25.));
#1770=CARTESIAN_POINT('',(1.80727251384093E-17,-1.02985000000013,24.995));
#1771=CARTESIAN_POINT('',(-0.00499999999999701,-1.03008335649435,25.));
#1772=CARTESIAN_POINT('',(-8.1439012143299E-17,-1.18,25.));
#1773=CARTESIAN_POINT('',(0.,-1.33,25.));
#1774=CARTESIAN_POINT('',(0.,-1.18,30.));
#1775=CARTESIAN_POINT('',(0.,-1.18,30.));
#1776=CARTESIAN_POINT('',(-7.22541611496938E-17,-1.18,25.));
#1777=CARTESIAN_POINT('',(-0.00499999999999702,-1.325,25.));
#1778=CARTESIAN_POINT('',(-0.00499999999999702,-1.325,25.));
#1779=CARTESIAN_POINT('',(-8.11328504435122E-17,-1.325,25.));
#1780=CARTESIAN_POINT('',(0.,-1.325,25.));
#1781=CARTESIAN_POINT('',(0.,-1.18,25.));
#1782=CARTESIAN_POINT('',(-9.06238631369041E-17,-1.18,20.));
#1783=CARTESIAN_POINT('',(0.005000000000003,-1.03008335649435,25.));
#1784=CARTESIAN_POINT('',(0.005000000000003,-1.03004371582392,24.9986793786095));
#1785=CARTESIAN_POINT('',(0.00391408515650878,-1.02992449114976,24.9960928852518));
#1786=CARTESIAN_POINT('',(0.00132124629699588,-1.02985,24.995));
#1787=CARTESIAN_POINT('',(1.33673434033789E-15,-1.02985,24.995));
#1788=CARTESIAN_POINT('',(0.005000000000003,-1.03008335649435,25.));
#1789=CARTESIAN_POINT('',(-8.1439012143299E-17,-1.18,25.));
#1790=CARTESIAN_POINT('',(-7.22541611496938E-17,-1.18,25.));
#1791=CARTESIAN_POINT('',(0.00500000000000298,-1.325,25.));
#1792=CARTESIAN_POINT('',(0.00500000000000298,-1.325,25.));
#1793=CARTESIAN_POINT('',(-8.11328504435122E-17,-1.325,25.));
#1794=CARTESIAN_POINT('',(2.9771846377036E-15,-1.325,25.));
#1795=CARTESIAN_POINT('',(0.,-1.325,24.995));
#1796=CARTESIAN_POINT('',(0.,-1.325,25.005));
#1797=CARTESIAN_POINT('',(0.,-1.325,25.005));
#1798=CARTESIAN_POINT('',(2.9771846377036E-15,-1.325,25.));
#1799=CARTESIAN_POINT('',(2.9771846377036E-15,-1.325,25.));
#1800=CARTESIAN_POINT('',(0.,-1.325,25.));
#1801=CARTESIAN_POINT('',(2.9771846377036E-15,-1.325,25.));
#1802=CARTESIAN_POINT('',(2.9771846377036E-15,-1.325,25.));
#1803=CARTESIAN_POINT('',(2.9771846377036E-15,-1.325,25.));
#1804=CARTESIAN_POINT('',(3.13945046105531E-15,1.325002,25.));
#1805=CARTESIAN_POINT('',(0.,1.325002,25.0025));
#1806=CARTESIAN_POINT('',(3.09658770062047E-15,0.625,25.0025));
#1807=CARTESIAN_POINT('',(0.,1.325002,24.9975));
#1808=CARTESIAN_POINT('',(0.,0.625,24.9975));
#1809=CARTESIAN_POINT('',(3.09658770062047E-15,0.625,25.));
#1810=CARTESIAN_POINT('',(3.13945046105531E-15,1.325002,25.));
#1811=CARTESIAN_POINT('',(3.09658770062047E-15,0.625,25.));
#1812=CARTESIAN_POINT('',(3.09658770062047E-15,0.625,25.));
#1813=CARTESIAN_POINT('',(0.,0.625,25.));
#1814=CARTESIAN_POINT('',(0.,0.625,24.995));
#1815=CARTESIAN_POINT('',(3.09658770062047E-15,0.625,25.));
#1816=CARTESIAN_POINT('',(0.,0.625,25.005));
#1817=CARTESIAN_POINT('',(0.,0.625,25.));
#1818=CARTESIAN_POINT('',(3.09658770062047E-15,0.625,25.));
#1819=CARTESIAN_POINT('',(3.09658770062047E-15,0.625,25.));
#1820=CARTESIAN_POINT('',(5.38844591624836E-17,1.18,20.));
#1821=CARTESIAN_POINT('',(-0.00499999999999688,1.03008335649435,25.));
#1822=CARTESIAN_POINT('',(-0.00499999999999688,1.03004371582392,24.9986793786095));
#1823=CARTESIAN_POINT('',(-0.00391408515650507,1.02992449114976,24.9960928852518));
#1824=CARTESIAN_POINT('',(-0.00132124629699487,1.02985,24.995));
#1825=CARTESIAN_POINT('',(-1.34780759337195E-15,1.02985,24.995));
#1826=CARTESIAN_POINT('',(-0.00499999999999688,1.03008335649435,25.));
#1827=CARTESIAN_POINT('',(-1.80727251384093E-17,1.02985000000013,24.995));
#1828=CARTESIAN_POINT('',(0.,1.18,30.));
#1829=CARTESIAN_POINT('',(0.,1.18,30.));
#1830=CARTESIAN_POINT('',(0.,1.33,25.));
#1831=CARTESIAN_POINT('',(6.30693101560887E-17,1.18,25.));
#1832=CARTESIAN_POINT('',(7.22541611496938E-17,1.18,25.));
#1833=CARTESIAN_POINT('',(-0.00499999999999686,1.325,25.));
#1834=CARTESIAN_POINT('',(-0.00499999999999686,1.325,25.));
#1835=CARTESIAN_POINT('',(0.,1.18,25.));
#1836=CARTESIAN_POINT('',(0.,1.325,25.));
#1837=CARTESIAN_POINT('',(8.11328504435122E-17,1.325,25.));
#1838=CARTESIAN_POINT('',(7.22541611496938E-17,1.18,25.));
#1839=CARTESIAN_POINT('',(0.00500000000000314,1.325,25.));
#1840=CARTESIAN_POINT('',(0.00500000000000312,1.03008335649435,25.));
#1841=CARTESIAN_POINT('',(0.00500000000000314,1.325,25.));
#1842=CARTESIAN_POINT('',(8.11328504435122E-17,1.325,25.));
#1843=CARTESIAN_POINT('',(6.30693101560887E-17,1.18,25.));
#1844=CARTESIAN_POINT('',(5.38844591624836E-17,1.18,20.));
#1845=CARTESIAN_POINT('',(1.65267546992546E-15,1.02985,24.995));
#1846=CARTESIAN_POINT('',(0.0013212223297752,1.02985,24.995));
#1847=CARTESIAN_POINT('',(0.00390909678336163,1.02992422283095,24.9960878702859));
#1848=CARTESIAN_POINT('',(0.00500000000000312,1.03004371660407,24.9986794046001));
#1849=CARTESIAN_POINT('',(0.00500000000000312,1.03008335649435,25.));
#1850=CARTESIAN_POINT('',(3.13945033859063E-15,1.325,25.));
#1851=CARTESIAN_POINT('',(3.13945033859063E-15,1.325,25.));
#1852=CARTESIAN_POINT('',(0.,1.325,25.005));
#1853=CARTESIAN_POINT('',(0.,1.325,25.005));
#1854=CARTESIAN_POINT('',(0.,1.325,24.995));
#1855=CARTESIAN_POINT('',(3.13945033859063E-15,1.325,25.));
#1856=CARTESIAN_POINT('',(0.,1.325,25.));
#1857=CARTESIAN_POINT('',(3.13945033859063E-15,1.325,25.));
#1858=CARTESIAN_POINT('',(3.13945033859063E-15,1.325,25.));
#1859=CARTESIAN_POINT('',(3.13945033859063E-15,1.325,25.));
#1860=CARTESIAN_POINT('',(0.,0.,0.));
#1861=CARTESIAN_POINT('',(5.38844591624836E-17,1.18,20.));
#1862=CARTESIAN_POINT('',(-0.00499999999999688,1.03008335649435,25.));
#1863=CARTESIAN_POINT('',(-0.00499999999999688,1.03004371582392,24.9986793786095));
#1864=CARTESIAN_POINT('',(-0.00391408515650532,1.02992449114976,24.9960928852518));
#1865=CARTESIAN_POINT('',(-0.00132124629699417,1.02985,24.995));
#1866=CARTESIAN_POINT('',(-4.73507008215339E-16,1.02985,24.995));
#1867=CARTESIAN_POINT('',(-0.00499999999999688,1.03008335649435,25.));
#1868=CARTESIAN_POINT('',(0.,1.02985,24.995));
#1869=CARTESIAN_POINT('',(6.30693101560887E-17,1.18,25.));
#1870=CARTESIAN_POINT('',(0.,1.33,25.));
#1871=CARTESIAN_POINT('',(0.,1.18,30.));
#1872=CARTESIAN_POINT('',(0.,1.48,20.));
#1873=CARTESIAN_POINT('',(5.38844591624836E-17,1.18,20.));
#1874=CARTESIAN_POINT('',(0.,0.88,20.));
#1875=CARTESIAN_POINT('',(0.,1.18,30.));
#1876=CARTESIAN_POINT('',(7.22541611496938E-17,1.18,25.));
#1877=CARTESIAN_POINT('',(-0.00499999999999686,1.325,25.));
#1878=CARTESIAN_POINT('',(-0.00499999999999686,1.325,25.));
#1879=CARTESIAN_POINT('',(8.11328504435122E-17,1.325,25.));
#1880=CARTESIAN_POINT('',(0.,1.325,25.));
#1881=CARTESIAN_POINT('',(0.,1.18,25.));
#1882=CARTESIAN_POINT('',(0.,0.,20.));
#1883=CARTESIAN_POINT('',(0.,0.,20.));
#1884=CARTESIAN_POINT('',(0.,0.,20.));
#1885=CARTESIAN_POINT('',(5.38844591624836E-17,1.18,20.));
#1886=CARTESIAN_POINT('',(7.22541611496938E-17,1.18,25.));
#1887=CARTESIAN_POINT('',(0.00500000000000314,1.325,25.));
#1888=CARTESIAN_POINT('',(0.00500000000000312,1.03008335649435,25.));
#1889=CARTESIAN_POINT('',(0.00500000000000314,1.325,25.));
#1890=CARTESIAN_POINT('',(6.30693101560887E-17,1.18,25.));
#1891=CARTESIAN_POINT('',(8.11328504435122E-17,1.325,25.));
#1892=CARTESIAN_POINT('',(5.38844591624836E-17,1.18,20.));
#1893=CARTESIAN_POINT('',(4.08937447621228E-16,1.02985,24.995));
#1894=CARTESIAN_POINT('',(0.00132122232977422,1.02985,24.995));
#1895=CARTESIAN_POINT('',(0.00390909678336203,1.02992422283095,24.9960878702859));
#1896=CARTESIAN_POINT('',(0.00500000000000312,1.03004371660407,24.9986794046001));
#1897=CARTESIAN_POINT('',(0.00500000000000312,1.03008335649435,25.));
#1898=CARTESIAN_POINT('',(3.13945033859063E-15,1.325,25.));
#1899=CARTESIAN_POINT('',(0.,1.325,24.995));
#1900=CARTESIAN_POINT('',(0.,1.325,24.995));
#1901=CARTESIAN_POINT('',(3.13945033859063E-15,1.325,25.));
#1902=CARTESIAN_POINT('',(3.13945033859063E-15,1.325,25.));
#1903=CARTESIAN_POINT('',(0.,1.325,25.));
#1904=CARTESIAN_POINT('',(3.13945033859063E-15,1.325,25.));
#1905=CARTESIAN_POINT('',(3.13945033859063E-15,1.325,25.));
#1906=CARTESIAN_POINT('',(3.13945033859063E-15,1.325,25.));
#1907=MECHANICAL_DESIGN_GEOMETRIC_PRESENTATION_REPRESENTATION('',(#1030),
#1914);
#1908=MECHANICAL_DESIGN_GEOMETRIC_PRESENTATION_REPRESENTATION('',(#1031),
#1915);
#1909=MECHANICAL_DESIGN_GEOMETRIC_PRESENTATION_REPRESENTATION('',(#1032),
#1916);
#1910=MECHANICAL_DESIGN_GEOMETRIC_PRESENTATION_REPRESENTATION('',(#1033),
#1917);
#1911=MECHANICAL_DESIGN_GEOMETRIC_PRESENTATION_REPRESENTATION('',(#1034),
#1918);
#1912=MECHANICAL_DESIGN_GEOMETRIC_PRESENTATION_REPRESENTATION('',(#1035),
#1919);
#1913=MECHANICAL_DESIGN_GEOMETRIC_PRESENTATION_REPRESENTATION('',(#1036),
#1920);
#1914=(
GEOMETRIC_REPRESENTATION_CONTEXT(3)
GLOBAL_UNCERTAINTY_ASSIGNED_CONTEXT((#1921))
GLOBAL_UNIT_ASSIGNED_CONTEXT((#1942,#1935,#1928))
REPRESENTATION_CONTEXT('support1','TOP_LEVEL_ASSEMBLY_PART')
);
#1915=(
GEOMETRIC_REPRESENTATION_CONTEXT(3)
GLOBAL_UNCERTAINTY_ASSIGNED_CONTEXT((#1922))
GLOBAL_UNIT_ASSIGNED_CONTEXT((#1943,#1936,#1929))
REPRESENTATION_CONTEXT('wire','TOP_LEVEL_ASSEMBLY_PART')
);
#1916=(
GEOMETRIC_REPRESENTATION_CONTEXT(3)
GLOBAL_UNCERTAINTY_ASSIGNED_CONTEXT((#1923))
GLOBAL_UNIT_ASSIGNED_CONTEXT((#1944,#1937,#1930))
REPRESENTATION_CONTEXT('base','TOP_LEVEL_ASSEMBLY_PART')
);
#1917=(
GEOMETRIC_REPRESENTATION_CONTEXT(3)
GLOBAL_UNCERTAINTY_ASSIGNED_CONTEXT((#1924))
GLOBAL_UNIT_ASSIGNED_CONTEXT((#1945,#1938,#1931))
REPRESENTATION_CONTEXT('end1','TOP_LEVEL_ASSEMBLY_PART')
);
#1918=(
GEOMETRIC_REPRESENTATION_CONTEXT(3)
GLOBAL_UNCERTAINTY_ASSIGNED_CONTEXT((#1925))
GLOBAL_UNIT_ASSIGNED_CONTEXT((#1946,#1939,#1932))
REPRESENTATION_CONTEXT('end2','TOP_LEVEL_ASSEMBLY_PART')
);
#1919=(
GEOMETRIC_REPRESENTATION_CONTEXT(3)
GLOBAL_UNCERTAINTY_ASSIGNED_CONTEXT((#1926))
GLOBAL_UNIT_ASSIGNED_CONTEXT((#1947,#1940,#1933))
REPRESENTATION_CONTEXT('domain','TOP_LEVEL_ASSEMBLY_PART')
);
#1920=(
GEOMETRIC_REPRESENTATION_CONTEXT(3)
GLOBAL_UNCERTAINTY_ASSIGNED_CONTEXT((#1927))
GLOBAL_UNIT_ASSIGNED_CONTEXT((#1948,#1941,#1934))
REPRESENTATION_CONTEXT('support2','TOP_LEVEL_ASSEMBLY_PART')
);
#1921=UNCERTAINTY_MEASURE_WITH_UNIT(LENGTH_MEASURE(2.E-5),#1942,
'DISTANCE_ACCURACY_VALUE','Maximum Tolerance applied to model');
#1922=UNCERTAINTY_MEASURE_WITH_UNIT(LENGTH_MEASURE(1.E-8),#1943,
'DISTANCE_ACCURACY_VALUE','Maximum Tolerance applied to model');
#1923=UNCERTAINTY_MEASURE_WITH_UNIT(LENGTH_MEASURE(1.E-8),#1944,
'DISTANCE_ACCURACY_VALUE','Maximum Tolerance applied to model');
#1924=UNCERTAINTY_MEASURE_WITH_UNIT(LENGTH_MEASURE(1.E-8),#1945,
'DISTANCE_ACCURACY_VALUE','Maximum Tolerance applied to model');
#1925=UNCERTAINTY_MEASURE_WITH_UNIT(LENGTH_MEASURE(1.E-8),#1946,
'DISTANCE_ACCURACY_VALUE','Maximum Tolerance applied to model');
#1926=UNCERTAINTY_MEASURE_WITH_UNIT(LENGTH_MEASURE(2.E-5),#1947,
'DISTANCE_ACCURACY_VALUE','Maximum Tolerance applied to model');
#1927=UNCERTAINTY_MEASURE_WITH_UNIT(LENGTH_MEASURE(2.E-5),#1948,
'DISTANCE_ACCURACY_VALUE','Maximum Tolerance applied to model');
#1928=(
NAMED_UNIT(*)
SI_UNIT($,.STERADIAN.)
SOLID_ANGLE_UNIT()
);
#1929=(
NAMED_UNIT(*)
SI_UNIT($,.STERADIAN.)
SOLID_ANGLE_UNIT()
);
#1930=(
NAMED_UNIT(*)
SI_UNIT($,.STERADIAN.)
SOLID_ANGLE_UNIT()
);
#1931=(
NAMED_UNIT(*)
SI_UNIT($,.STERADIAN.)
SOLID_ANGLE_UNIT()
);
#1932=(
NAMED_UNIT(*)
SI_UNIT($,.STERADIAN.)
SOLID_ANGLE_UNIT()
);
#1933=(
NAMED_UNIT(*)
SI_UNIT($,.STERADIAN.)
SOLID_ANGLE_UNIT()
);
#1934=(
NAMED_UNIT(*)
SI_UNIT($,.STERADIAN.)
SOLID_ANGLE_UNIT()
);
#1935=(
NAMED_UNIT(*)
PLANE_ANGLE_UNIT()
SI_UNIT($,.RADIAN.)
);
#1936=(
NAMED_UNIT(*)
PLANE_ANGLE_UNIT()
SI_UNIT($,.RADIAN.)
);
#1937=(
NAMED_UNIT(*)
PLANE_ANGLE_UNIT()
SI_UNIT($,.RADIAN.)
);
#1938=(
NAMED_UNIT(*)
PLANE_ANGLE_UNIT()
SI_UNIT($,.RADIAN.)
);
#1939=(
NAMED_UNIT(*)
PLANE_ANGLE_UNIT()
SI_UNIT($,.RADIAN.)
);
#1940=(
NAMED_UNIT(*)
PLANE_ANGLE_UNIT()
SI_UNIT($,.RADIAN.)
);
#1941=(
NAMED_UNIT(*)
PLANE_ANGLE_UNIT()
SI_UNIT($,.RADIAN.)
);
#1942=(
LENGTH_UNIT()
NAMED_UNIT(*)
SI_UNIT($,.METRE.)
);
#1943=(
LENGTH_UNIT()
NAMED_UNIT(*)
SI_UNIT($,.METRE.)
);
#1944=(
LENGTH_UNIT()
NAMED_UNIT(*)
SI_UNIT($,.METRE.)
);
#1945=(
LENGTH_UNIT()
NAMED_UNIT(*)
SI_UNIT($,.METRE.)
);
#1946=(
LENGTH_UNIT()
NAMED_UNIT(*)
SI_UNIT($,.METRE.)
);
#1947=(
LENGTH_UNIT()
NAMED_UNIT(*)
SI_UNIT($,.METRE.)
);
#1948=(
LENGTH_UNIT()
NAMED_UNIT(*)
SI_UNIT($,.METRE.)
);
#1949=PRODUCT_DEFINITION_SHAPE('','',#1956);
#1950=PRODUCT_DEFINITION_SHAPE('','',#1957);
#1951=PRODUCT_DEFINITION_SHAPE('','',#1958);
#1952=PRODUCT_DEFINITION_SHAPE('','',#1959);
#1953=PRODUCT_DEFINITION_SHAPE('','',#1960);
#1954=PRODUCT_DEFINITION_SHAPE('','',#1961);
#1955=PRODUCT_DEFINITION_SHAPE('','',#1962);
#1956=PRODUCT_DEFINITION('','',#1970,#1963);
#1957=PRODUCT_DEFINITION('','',#1971,#1964);
#1958=PRODUCT_DEFINITION('','',#1972,#1965);
#1959=PRODUCT_DEFINITION('','',#1973,#1966);
#1960=PRODUCT_DEFINITION('','',#1974,#1967);
#1961=PRODUCT_DEFINITION('','',#1975,#1968);
#1962=PRODUCT_DEFINITION('','',#1976,#1969);
#1963=PRODUCT_DEFINITION_CONTEXT('',#2012,'design');
#1964=PRODUCT_DEFINITION_CONTEXT('',#2013,'design');
#1965=PRODUCT_DEFINITION_CONTEXT('',#2014,'design');
#1966=PRODUCT_DEFINITION_CONTEXT('',#2015,'design');
#1967=PRODUCT_DEFINITION_CONTEXT('',#2016,'design');
#1968=PRODUCT_DEFINITION_CONTEXT('',#2017,'design');
#1969=PRODUCT_DEFINITION_CONTEXT('',#2018,'design');
#1970=PRODUCT_DEFINITION_FORMATION_WITH_SPECIFIED_SOURCE('','',#1984,
 .NOT_KNOWN.);
#1971=PRODUCT_DEFINITION_FORMATION_WITH_SPECIFIED_SOURCE('','',#1985,
 .NOT_KNOWN.);
#1972=PRODUCT_DEFINITION_FORMATION_WITH_SPECIFIED_SOURCE('','',#1986,
 .NOT_KNOWN.);
#1973=PRODUCT_DEFINITION_FORMATION_WITH_SPECIFIED_SOURCE('','',#1987,
 .NOT_KNOWN.);
#1974=PRODUCT_DEFINITION_FORMATION_WITH_SPECIFIED_SOURCE('','',#1988,
 .NOT_KNOWN.);
#1975=PRODUCT_DEFINITION_FORMATION_WITH_SPECIFIED_SOURCE('','',#1989,
 .NOT_KNOWN.);
#1976=PRODUCT_DEFINITION_FORMATION_WITH_SPECIFIED_SOURCE('','',#1990,
 .NOT_KNOWN.);
#1977=PRODUCT_RELATED_PRODUCT_CATEGORY('','',(#1984));
#1978=PRODUCT_RELATED_PRODUCT_CATEGORY('','',(#1985));
#1979=PRODUCT_RELATED_PRODUCT_CATEGORY('','',(#1986));
#1980=PRODUCT_RELATED_PRODUCT_CATEGORY('','',(#1987));
#1981=PRODUCT_RELATED_PRODUCT_CATEGORY('','',(#1988));
#1982=PRODUCT_RELATED_PRODUCT_CATEGORY('','',(#1989));
#1983=PRODUCT_RELATED_PRODUCT_CATEGORY('','',(#1990));
#1984=PRODUCT('support1','support1','support1',(#1998));
#1985=PRODUCT('wire','wire','wire',(#1999));
#1986=PRODUCT('base','base','base',(#2000));
#1987=PRODUCT('end1','end1','end1',(#2001));
#1988=PRODUCT('end2','end2','end2',(#2002));
#1989=PRODUCT('domain','domain','domain',(#2003));
#1990=PRODUCT('support2','support2','support2',(#2004));
#1991=PRODUCT_CATEGORY('','');
#1992=PRODUCT_CATEGORY('','');
#1993=PRODUCT_CATEGORY('','');
#1994=PRODUCT_CATEGORY('','');
#1995=PRODUCT_CATEGORY('','');
#1996=PRODUCT_CATEGORY('','');
#1997=PRODUCT_CATEGORY('','');
#1998=PRODUCT_CONTEXT('',#2012,'mechanical');
#1999=PRODUCT_CONTEXT('',#2013,'mechanical');
#2000=PRODUCT_CONTEXT('',#2014,'mechanical');
#2001=PRODUCT_CONTEXT('',#2015,'mechanical');
#2002=PRODUCT_CONTEXT('',#2016,'mechanical');
#2003=PRODUCT_CONTEXT('',#2017,'mechanical');
#2004=PRODUCT_CONTEXT('',#2018,'mechanical');
#2005=APPLICATION_PROTOCOL_DEFINITION('international standard',
'ap242_managed_model_based_3d_engineering',2020,#2012);
#2006=APPLICATION_PROTOCOL_DEFINITION('international standard',
'ap242_managed_model_based_3d_engineering',2020,#2013);
#2007=APPLICATION_PROTOCOL_DEFINITION('international standard',
'ap242_managed_model_based_3d_engineering',2020,#2014);
#2008=APPLICATION_PROTOCOL_DEFINITION('international standard',
'ap242_managed_model_based_3d_engineering',2020,#2015);
#2009=APPLICATION_PROTOCOL_DEFINITION('international standard',
'ap242_managed_model_based_3d_engineering',2020,#2016);
#2010=APPLICATION_PROTOCOL_DEFINITION('international standard',
'ap242_managed_model_based_3d_engineering',2020,#2017);
#2011=APPLICATION_PROTOCOL_DEFINITION('international standard',
'ap242_managed_model_based_3d_engineering',2020,#2018);
#2012=APPLICATION_CONTEXT('managed model based 3d engineering');
#2013=APPLICATION_CONTEXT('managed model based 3d engineering');
#2014=APPLICATION_CONTEXT('managed model based 3d engineering');
#2015=APPLICATION_CONTEXT('managed model based 3d engineering');
#2016=APPLICATION_CONTEXT('managed model based 3d engineering');
#2017=APPLICATION_CONTEXT('managed model based 3d engineering');
#2018=APPLICATION_CONTEXT('managed model based 3d engineering');
ENDSEC;
END-ISO-10303-21;
